M48
;Layer_Color=9474304
;FILE_FORMAT=2:5
INCH,LZ
;TYPE=PLATED
T1F00S00C0.02000
T2F00S00C0.02756
T3F00S00C0.03543
T4F00S00C0.03937
T5F00S00C0.15748
%
T01
X007Y004
X017
X016Y002
X02
X024
X025Y004
X027
X029
X031
X033
X035
X034Y002
X023Y004
X024Y006
X026
X028
X03
X032
X034
X035Y008
X034Y01
X035Y012
X034Y014
X035Y016
X034Y018
X035Y02
X03Y018
X028
X02626Y01819
X02493Y0192
X02259Y0199
X02201Y01968
X02162Y01869
X022Y018
X02439Y01637
X024Y014
X026
X028
X03
X031Y012
X029
X027
X02558Y01049
X024Y01
X022
X023Y012
X025Y008
X027
X029
X031
X03Y01
X028
X022Y006
X02
X01894Y00602
X018Y006
X017Y008
X021
Y012
X019
X02Y014
X01997Y01656
X021Y016
X018Y018
X016
X014
X015Y02
X017
X015Y016
X013
X016Y014
X008
X006
X007Y016
X00794Y01809
X0062747Y0196847
X00673Y02045
X007Y012
X006Y01
X007Y008
X009
X01Y006
X006
X004
X002
X003Y008
Y012
X005
Y016
X003
X002Y014
Y022
X004
Y026
X002
X003Y028
X005
X004Y03
X002
X006
X014Y026
X016
X018
X021Y024
X016Y022
X014
X01037Y02208
X021895Y021885
X02238Y02229
X02218Y02324
X022955Y02335
X02311Y02285
X02356Y02241
X02329Y022
X024
X02269Y02137
X024Y026
X0244094Y027559
X025Y028
X0255Y02734
X02597Y02708
X02645Y02662
X0269Y02679
X0265Y02496
X02543Y02506
X029Y024
X031
X032Y026
X034
X035Y028
X034Y03
X032
X03
X031Y028
X029
X03Y026
Y022
X034
X035Y024
X024Y03
X022
T02
X0177395Y0018798
X0189206
X0210859
X022267
T03
X0274016Y0054567
Y0064567
X02395Y00734
X02295
X02195
Y00834
X02295
X02395
X0322835Y008622
X0332835
Y009622
X0322835
Y010622
X0332835
Y011622
X0322835
Y012622
X0332835
Y013622
X0322835
Y014622
X0332835
Y015622
X0322835
Y016622
X0332835
Y017622
X0322835
Y018622
X0332835
Y019622
X0322835
Y020622
X0332835
X01734Y02043
Y01943
Y01843
Y01743
X0139Y01949
X00339Y01728
X00575Y02685
X00675
X00775
X00875
X00975
X01075
X01175
X01275
Y02785
X01175
X01075
X00975
X00875
X00775
X00675
X00575
X01238Y02376
X01338
X01438
X01538
X01638
X01738
X01838
X01734Y02143
X0277953Y0219291
X0287953
X0322835Y021622
X0332835
Y022622
X0322835
Y023622
X0332835
X0279017Y0298361
X0261695
T04
X00283Y00177
X0047985
X00737Y00174
X0093385
X01193
X0138985
X02547
X0274385
X029407
X01803Y0092878
X0162583
Y01165
X01803
T05
X0326772Y0027559
Y0287402
M30
