%FSLAX25Y25*%
%MOIN*%
G70*
G01*
G75*
G04 Layer_Color=8388736*
%ADD10C,0.01000*%
%ADD11C,0.02500*%
%ADD12C,0.03000*%
%ADD13R,0.07087X0.06299*%
%ADD14R,0.01575X0.09449*%
%ADD15R,0.05512X0.05906*%
%ADD16R,0.01181X0.04724*%
%ADD17R,0.04724X0.01181*%
%ADD18R,0.11811X0.11811*%
%ADD19R,0.05906X0.05512*%
%ADD20R,0.06299X0.05984*%
%ADD21R,0.05984X0.06299*%
%ADD22R,0.08268X0.12598*%
%ADD23R,0.08268X0.03543*%
%ADD24R,0.03937X0.17716*%
%ADD25O,0.07087X0.01181*%
%ADD26O,0.01181X0.07087*%
%ADD27R,0.17716X0.03937*%
%ADD28R,0.05906X0.05906*%
%ADD29C,0.05906*%
%ADD30C,0.06693*%
%ADD31R,0.05906X0.05906*%
%ADD32C,0.19685*%
%ADD33O,0.06299X0.09843*%
%ADD34R,0.06299X0.09843*%
%ADD35C,0.04724*%
%ADD36C,0.03543*%
%ADD37C,0.03500*%
%ADD38O,0.01378X0.08268*%
%ADD39C,0.00984*%
%ADD40C,0.02362*%
%ADD41C,0.00394*%
%ADD42C,0.00787*%
%ADD43C,0.00800*%
%ADD44R,0.07887X0.07099*%
%ADD45R,0.02375X0.10249*%
%ADD46R,0.06312X0.06706*%
%ADD47R,0.01981X0.05524*%
%ADD48R,0.05524X0.01981*%
%ADD49R,0.12611X0.12611*%
%ADD50R,0.06706X0.06312*%
%ADD51R,0.07099X0.06784*%
%ADD52R,0.06784X0.07099*%
%ADD53R,0.09068X0.13398*%
%ADD54R,0.09068X0.04343*%
%ADD55R,0.04737X0.18517*%
%ADD56O,0.07887X0.01981*%
%ADD57O,0.01981X0.07887*%
%ADD58R,0.18517X0.04737*%
%ADD59R,0.06706X0.06706*%
%ADD60C,0.06706*%
%ADD61C,0.07493*%
%ADD62R,0.06706X0.06706*%
%ADD63C,0.20485*%
%ADD64O,0.07099X0.10642*%
%ADD65R,0.07099X0.10642*%
%ADD66C,0.05524*%
%ADD67C,0.04343*%
%ADD68C,0.04300*%
D42*
X126200Y135200D02*
X127500Y133900D01*
X126200Y135200D02*
Y144800D01*
X117300Y142800D02*
Y144400D01*
X115800Y141300D02*
X117300Y142800D01*
X112500Y141300D02*
X115800D01*
X104100Y137100D02*
Y141000D01*
X101900Y134900D02*
X104100Y137100D01*
X101800Y134900D02*
X101900D01*
X127500Y66100D02*
Y133900D01*
X115200Y125200D02*
X115500Y124900D01*
Y65600D02*
Y124900D01*
X97300Y125200D02*
X115200D01*
X91600Y138000D02*
Y138300D01*
Y138000D02*
X94700Y134900D01*
X87800Y134700D02*
X97300Y125200D01*
X87800Y134700D02*
Y186700D01*
X94700Y134900D02*
X101800D01*
X91600Y138300D02*
Y185900D01*
D44*
X252639Y287337D02*
D03*
X288072D02*
D03*
Y308597D02*
D03*
X252639D02*
D03*
D45*
X264057Y284187D02*
D03*
X267206D02*
D03*
X270356D02*
D03*
X273506D02*
D03*
X276655D02*
D03*
D46*
X227005Y160444D02*
D03*
X219131D02*
D03*
X239763Y156700D02*
D03*
X247637D02*
D03*
X254837Y208700D02*
D03*
X246963D02*
D03*
X33837Y183300D02*
D03*
X25963D02*
D03*
X107363Y163000D02*
D03*
X115237D02*
D03*
X107363Y171800D02*
D03*
X115237D02*
D03*
X209437Y96300D02*
D03*
X201563D02*
D03*
X255737Y96500D02*
D03*
X247863D02*
D03*
X174803Y300000D02*
D03*
X182677D02*
D03*
X87537Y45400D02*
D03*
X79663D02*
D03*
X41837D02*
D03*
X33963D02*
D03*
X180137Y136800D02*
D03*
X172263D02*
D03*
X155118Y300000D02*
D03*
X162992D02*
D03*
X138963Y210000D02*
D03*
X146837D02*
D03*
X227363Y147800D02*
D03*
X235237D02*
D03*
X219037Y147700D02*
D03*
X211163D02*
D03*
D47*
X79908Y208757D02*
D03*
X81876D02*
D03*
X83845D02*
D03*
X85813D02*
D03*
X87782D02*
D03*
X89750D02*
D03*
X91719D02*
D03*
X93687D02*
D03*
Y186906D02*
D03*
X91719D02*
D03*
X89750D02*
D03*
X87782D02*
D03*
X85813D02*
D03*
X83845D02*
D03*
X81876D02*
D03*
X79908D02*
D03*
D48*
X97723Y204721D02*
D03*
Y202753D02*
D03*
Y200784D02*
D03*
Y198816D02*
D03*
Y196847D02*
D03*
Y194879D02*
D03*
Y192910D02*
D03*
Y190942D02*
D03*
X75872D02*
D03*
Y192910D02*
D03*
Y194879D02*
D03*
Y196847D02*
D03*
Y198816D02*
D03*
Y200784D02*
D03*
Y202753D02*
D03*
Y204721D02*
D03*
D49*
X86896Y197930D02*
D03*
D50*
X264900Y227137D02*
D03*
Y219263D02*
D03*
X254000Y227037D02*
D03*
Y219163D02*
D03*
X276500Y262563D02*
D03*
Y270437D02*
D03*
X165128Y274226D02*
D03*
Y266352D02*
D03*
X108600Y212037D02*
D03*
Y204163D02*
D03*
X116400Y188737D02*
D03*
Y180863D02*
D03*
X107400Y188737D02*
D03*
Y180863D02*
D03*
X119200Y209537D02*
D03*
Y201663D02*
D03*
X128900Y209537D02*
D03*
Y201663D02*
D03*
X52900Y215237D02*
D03*
Y207363D02*
D03*
X53400Y227863D02*
D03*
Y235737D02*
D03*
X154104Y274226D02*
D03*
Y266352D02*
D03*
X222800Y44337D02*
D03*
Y36463D02*
D03*
X189300Y44837D02*
D03*
Y36963D02*
D03*
X73700Y63163D02*
D03*
Y71037D02*
D03*
X92900Y62963D02*
D03*
Y70837D02*
D03*
X26400Y62963D02*
D03*
Y70837D02*
D03*
X47800Y63063D02*
D03*
Y70937D02*
D03*
X254100Y235563D02*
D03*
Y243437D02*
D03*
X265000Y235663D02*
D03*
Y243537D02*
D03*
X108400Y130463D02*
D03*
Y138337D02*
D03*
X220700Y286263D02*
D03*
Y294137D02*
D03*
X235200Y286263D02*
D03*
Y294137D02*
D03*
X207200Y217437D02*
D03*
Y209563D02*
D03*
X199700Y180437D02*
D03*
Y172563D02*
D03*
D51*
X73700Y89014D02*
D03*
Y102400D02*
D03*
X93100Y102086D02*
D03*
Y88700D02*
D03*
X26200Y88714D02*
D03*
Y102100D02*
D03*
X48000Y102186D02*
D03*
Y88800D02*
D03*
X121700Y117786D02*
D03*
Y104400D02*
D03*
Y93786D02*
D03*
Y80400D02*
D03*
X121500Y69886D02*
D03*
Y56500D02*
D03*
X121700Y128014D02*
D03*
Y141400D02*
D03*
D52*
X121214Y46900D02*
D03*
X134600D02*
D03*
D53*
X182874Y275197D02*
D03*
D54*
X205315Y284252D02*
D03*
Y275197D02*
D03*
Y266142D02*
D03*
D55*
X33400Y203835D02*
D03*
Y240765D02*
D03*
D56*
X209055Y179173D02*
D03*
Y181142D02*
D03*
Y183110D02*
D03*
Y185079D02*
D03*
Y187047D02*
D03*
Y189016D02*
D03*
Y190984D02*
D03*
Y192953D02*
D03*
Y194921D02*
D03*
Y196890D02*
D03*
Y198858D02*
D03*
Y200827D02*
D03*
X240945D02*
D03*
Y198858D02*
D03*
Y196890D02*
D03*
Y194921D02*
D03*
Y192953D02*
D03*
Y190984D02*
D03*
Y189016D02*
D03*
Y187047D02*
D03*
Y185079D02*
D03*
Y183110D02*
D03*
Y181142D02*
D03*
Y179173D02*
D03*
D57*
X214173Y205945D02*
D03*
X216142D02*
D03*
X218110D02*
D03*
X220079D02*
D03*
X222047D02*
D03*
X224016D02*
D03*
X225984D02*
D03*
X227953D02*
D03*
X229921D02*
D03*
X231890D02*
D03*
X233858D02*
D03*
X235827D02*
D03*
Y174055D02*
D03*
X233858D02*
D03*
X231890D02*
D03*
X229921D02*
D03*
X227953D02*
D03*
X225984D02*
D03*
X224016D02*
D03*
X222047D02*
D03*
X220079D02*
D03*
X218110D02*
D03*
X216142D02*
D03*
X214173D02*
D03*
D58*
X241965Y127900D02*
D03*
X205035D02*
D03*
D59*
X219500Y73400D02*
D03*
X139000Y194900D02*
D03*
X33900Y172800D02*
D03*
X123800Y237600D02*
D03*
X127500Y278500D02*
D03*
X277953Y219291D02*
D03*
D60*
X219500Y83400D02*
D03*
X229500Y73400D02*
D03*
Y83400D02*
D03*
X239500Y73400D02*
D03*
Y83400D02*
D03*
X173400Y214300D02*
D03*
Y204300D02*
D03*
Y194300D02*
D03*
Y184300D02*
D03*
X183800Y237600D02*
D03*
X173800D02*
D03*
X163800D02*
D03*
X153800D02*
D03*
X133800D02*
D03*
X143800D02*
D03*
X127500Y268500D02*
D03*
X117500Y278500D02*
D03*
Y268500D02*
D03*
X107500Y278500D02*
D03*
Y268500D02*
D03*
X97500Y278500D02*
D03*
Y268500D02*
D03*
X87500Y278500D02*
D03*
Y268500D02*
D03*
X77500Y278500D02*
D03*
Y268500D02*
D03*
X67500Y278500D02*
D03*
Y268500D02*
D03*
X57500Y278500D02*
D03*
Y268500D02*
D03*
X274016Y54567D02*
D03*
X332835Y86220D02*
D03*
X322835D02*
D03*
X332835Y96220D02*
D03*
X322835D02*
D03*
X332835Y106220D02*
D03*
X322835D02*
D03*
X332835Y116220D02*
D03*
X322835D02*
D03*
X332835Y126220D02*
D03*
X322835D02*
D03*
X332835Y136220D02*
D03*
X322835D02*
D03*
X332835Y146220D02*
D03*
X322835D02*
D03*
X332835Y156220D02*
D03*
X322835D02*
D03*
X332835Y166220D02*
D03*
X322835D02*
D03*
X332835Y176220D02*
D03*
X322835D02*
D03*
X332835Y186220D02*
D03*
X322835D02*
D03*
X332835Y196220D02*
D03*
X322835D02*
D03*
X332835Y206220D02*
D03*
X322835D02*
D03*
X332835Y216220D02*
D03*
X322835D02*
D03*
X332835Y226220D02*
D03*
X322835D02*
D03*
X332835Y236220D02*
D03*
X287953Y219291D02*
D03*
D61*
X274385Y17400D02*
D03*
X254700D02*
D03*
X294070D02*
D03*
X119300D02*
D03*
X138985D02*
D03*
X73700D02*
D03*
X93385D02*
D03*
X28300Y17700D02*
D03*
X47985D02*
D03*
D62*
X173400Y174300D02*
D03*
X274016Y64567D02*
D03*
X322835Y236220D02*
D03*
D63*
X326772Y27559D02*
D03*
Y287402D02*
D03*
D64*
X162583Y92878D02*
D03*
X180300D02*
D03*
X162583Y116500D02*
D03*
D65*
X180300D02*
D03*
D66*
X222670Y18798D02*
D03*
X210859D02*
D03*
X189206D02*
D03*
X177395D02*
D03*
D67*
X261695Y298361D02*
D03*
X279017D02*
D03*
D68*
X264500Y266200D02*
D03*
X244094Y275590D02*
D03*
X231100Y228500D02*
D03*
X189400Y60200D02*
D03*
X243900Y163700D02*
D03*
X225900Y199000D02*
D03*
X216200Y186900D02*
D03*
X220100Y196800D02*
D03*
X218950Y218850D02*
D03*
X221800Y232400D02*
D03*
X223800Y222900D02*
D03*
X226900Y213700D02*
D03*
X229550Y233500D02*
D03*
X232900Y220000D02*
D03*
X235600Y224100D02*
D03*
X199700Y165600D02*
D03*
X255800Y104900D02*
D03*
X249300Y192000D02*
D03*
X262600Y181900D02*
D03*
X269000Y267900D02*
D03*
X265000Y249600D02*
D03*
X254300Y250600D02*
D03*
X103700Y220800D02*
D03*
X62747Y196847D02*
D03*
X79400Y180900D02*
D03*
X67300Y204500D02*
D03*
X259700Y270800D02*
D03*
X255000Y273400D02*
D03*
M02*
