%FSLAX25Y25*%
%MOIN*%
G70*
G01*
G75*
%ADD10C,0.01000*%
%ADD11C,0.02500*%
%ADD12C,0.03000*%
%ADD13R,0.07087X0.06299*%
%ADD14R,0.01575X0.09449*%
%ADD15R,0.05512X0.05906*%
%ADD16R,0.01181X0.04724*%
%ADD17R,0.04724X0.01181*%
%ADD18R,0.11811X0.11811*%
%ADD19R,0.05906X0.05512*%
%ADD20R,0.06299X0.05984*%
%ADD21R,0.05984X0.06299*%
%ADD22R,0.08268X0.12598*%
%ADD23R,0.08268X0.03543*%
%ADD24R,0.03937X0.17716*%
%ADD25O,0.07087X0.01181*%
%ADD26O,0.01181X0.07087*%
%ADD27R,0.17716X0.03937*%
%ADD28R,0.05906X0.05906*%
%ADD29C,0.05906*%
%ADD30C,0.06693*%
%ADD31R,0.05906X0.05906*%
%ADD32C,0.19685*%
%ADD33O,0.06299X0.09843*%
%ADD34R,0.06299X0.09843*%
%ADD35C,0.04724*%
%ADD36C,0.03543*%
%ADD37C,0.03500*%
%ADD38O,0.01378X0.08268*%
%ADD39C,0.00984*%
%ADD40C,0.02362*%
%ADD41C,0.00394*%
%ADD42C,0.00787*%
%ADD43C,0.00800*%
D10*
X74888Y209347D02*
G03*
X74888Y209347I-492J0D01*
G01*
X226859Y18798D02*
G03*
X226859Y18798I-10000J0D01*
G01*
X193394D02*
G03*
X193394Y18798I-10000J0D01*
G01*
X180800Y100000D02*
Y110000D01*
X167800Y93000D02*
X174800D01*
X162800Y100500D02*
Y109000D01*
X168300Y116500D02*
X175300D01*
X109300Y17400D02*
Y34400D01*
X149300D01*
Y400D02*
Y34400D01*
X109300Y400D02*
X149300D01*
X109300D02*
Y17400D01*
X63700D02*
Y34400D01*
X103700D01*
Y400D02*
Y34400D01*
X63700Y400D02*
X103700D01*
X63700D02*
Y17400D01*
X18300Y17700D02*
Y34700D01*
X58300D01*
Y700D02*
Y34700D01*
X18300Y700D02*
X58300D01*
X18300D02*
Y17700D01*
X213359Y21798D02*
Y24798D01*
X211859Y23298D02*
X214859D01*
X179895Y21798D02*
Y24798D01*
X178395Y23298D02*
X181395D01*
X286399Y264798D02*
X285399Y265798D01*
X283400D01*
X282400Y264798D01*
Y260800D01*
X283400Y259800D01*
X285399D01*
X286399Y260800D01*
X288398Y264798D02*
X289398Y265798D01*
X291397D01*
X292397Y264798D01*
Y263799D01*
X291397Y262799D01*
X290397D01*
X291397D01*
X292397Y261799D01*
Y260800D01*
X291397Y259800D01*
X289398D01*
X288398Y260800D01*
X298395Y259800D02*
X294396D01*
X298395Y263799D01*
Y264798D01*
X297395Y265798D01*
X295396D01*
X294396Y264798D01*
D39*
X139492Y202971D02*
G03*
X139492Y202971I-492J0D01*
G01*
X34392Y164729D02*
G03*
X34392Y164729I-492J0D01*
G01*
X205807Y262205D02*
G03*
X205807Y262205I-492J0D01*
G01*
X211910Y174055D02*
G03*
X211910Y174055I-492J0D01*
G01*
D40*
X219291Y183110D02*
G03*
X219291Y183110I-1181J0D01*
G01*
D41*
X278356Y282792D02*
X288986D01*
X251726D02*
X262356D01*
X252639Y291372D02*
Y304561D01*
X288072Y291274D02*
Y304561D01*
X252756Y312992D02*
X287795D01*
D42*
X223068Y157885D02*
Y163003D01*
X244500Y68400D02*
Y88400D01*
X214500Y68400D02*
Y88400D01*
X244500D01*
X214500Y68400D02*
X244500D01*
X225333D02*
X244500D01*
X243700Y154141D02*
Y159259D01*
X269900Y244500D02*
X271600D01*
X247400Y244300D02*
X249100D01*
X250900Y206141D02*
Y211259D01*
X262341Y223200D02*
X267459D01*
X251441Y223100D02*
X256559D01*
X273941Y266500D02*
X279059D01*
X244700Y34400D02*
X303842D01*
X303913Y34329D01*
Y471D02*
Y34329D01*
X303842Y400D02*
X303913Y471D01*
X244700Y400D02*
X303842D01*
X244700D02*
Y34400D01*
X162569Y270289D02*
X167687D01*
X70701Y95700D02*
X77000D01*
X89800Y95400D02*
X96099D01*
X23201D02*
X29500D01*
X44700Y95500D02*
X50999D01*
X118400Y111100D02*
X124699D01*
X118400Y87100D02*
X124699D01*
X118200Y63200D02*
X124499D01*
X127900Y43600D02*
Y49899D01*
X118701Y134700D02*
X125000D01*
X133488Y189388D02*
Y200412D01*
Y189388D02*
X144512D01*
Y200412D01*
X133488D02*
X144512D01*
X39412Y167288D02*
Y178312D01*
X28388D02*
X39412D01*
X28388Y167288D02*
Y178312D01*
Y167288D02*
X39412D01*
X29900Y180741D02*
Y185859D01*
X106041Y208100D02*
X111159D01*
X111300Y160441D02*
Y165559D01*
Y169241D02*
Y174359D01*
X113841Y184800D02*
X118959D01*
X104841D02*
X109959D01*
X116641Y205600D02*
X121759D01*
X126341D02*
X131459D01*
X50341Y211300D02*
X55459D01*
X50841Y231800D02*
X55959D01*
X151545Y270289D02*
X156663D01*
X205500Y93741D02*
Y98859D01*
X251800Y93941D02*
Y99059D01*
X220241Y40400D02*
X225359D01*
X186741Y40900D02*
X191859D01*
X188189Y288386D02*
X200000D01*
X188189Y262008D02*
X200000D01*
X188189D02*
Y288386D01*
X200000Y262008D02*
Y288386D01*
X178740Y297441D02*
Y302559D01*
X168400Y169300D02*
X178400D01*
X168400D02*
Y219300D01*
X178400Y169300D02*
Y219300D01*
X168400D02*
X178400D01*
X43243Y199072D02*
Y244347D01*
X36156Y199072D02*
X43243D01*
X23557D02*
Y244347D01*
Y199072D02*
X30644D01*
X23557Y244347D02*
X30644D01*
X36156D02*
X43243D01*
X71141Y67100D02*
X76259D01*
X83600Y42841D02*
Y47959D01*
X90341Y66900D02*
X95459D01*
X23841D02*
X28959D01*
X37900Y42841D02*
Y47959D01*
X45241Y67000D02*
X50359D01*
X176200Y134241D02*
Y139359D01*
X159055Y297441D02*
Y302559D01*
X118800Y242600D02*
X188800D01*
X118800Y232600D02*
Y242600D01*
Y232600D02*
X188800D01*
Y242600D01*
X52500Y263500D02*
Y283500D01*
X132500Y263500D02*
Y283500D01*
X52500D02*
X132500D01*
X52500Y263500D02*
X132500D01*
X269016Y49567D02*
X279016D01*
X269016D02*
Y69567D01*
X279016D01*
Y49567D02*
Y69567D01*
X251541Y239500D02*
X256659D01*
X262441Y239600D02*
X267559D01*
X142900Y207441D02*
Y212559D01*
X105841Y134400D02*
X110959D01*
X218141Y290200D02*
X223259D01*
X232641D02*
X237759D01*
X204641Y213500D02*
X209759D01*
X197141Y176500D02*
X202259D01*
X317835Y81220D02*
Y241220D01*
X337835Y81220D02*
Y241220D01*
X317835D02*
X337835D01*
X317835Y81220D02*
X337835D01*
X235827Y179173D02*
Y200827D01*
X214173Y179173D02*
Y200827D01*
X235827D01*
X214173Y179173D02*
X235827D01*
X272953Y224291D02*
X292953D01*
X272953Y214291D02*
Y224291D01*
Y214291D02*
X292953D01*
Y224291D01*
X231300Y145241D02*
Y150359D01*
X201453Y137743D02*
X246728D01*
Y130656D02*
Y137743D01*
X201453Y118058D02*
X246728D01*
Y125144D01*
X201453Y118058D02*
Y125144D01*
Y130656D02*
Y137743D01*
X215100Y145141D02*
Y150259D01*
D43*
X76660Y205902D02*
Y207871D01*
X78628D01*
X95164D02*
X96935D01*
Y206001D02*
Y207871D01*
X76660Y187595D02*
X78727D01*
X76660D02*
Y189662D01*
X94967Y187595D02*
X96935D01*
Y189662D01*
X297400Y306600D02*
Y310599D01*
X299399D01*
X300066Y309932D01*
Y308599D01*
X299399Y307933D01*
X297400D01*
X301399Y306600D02*
X302732D01*
X302065D01*
Y310599D01*
X301399Y309932D01*
X207600Y158800D02*
Y162799D01*
X209599D01*
X210266Y162132D01*
Y160799D01*
X209599Y160133D01*
X207600D01*
X208933D02*
X210266Y158800D01*
X211599Y162799D02*
X214264D01*
Y162132D01*
X211599Y159467D01*
Y158800D01*
X215700Y60900D02*
Y64899D01*
X217699D01*
X218366Y64232D01*
Y62899D01*
X217699Y62233D01*
X215700D01*
X222364Y60900D02*
X219699D01*
X222364Y63566D01*
Y64232D01*
X221698Y64899D01*
X220365D01*
X219699Y64232D01*
X248832Y86398D02*
X247166Y85565D01*
X245500Y83899D01*
Y82233D01*
X246333Y81400D01*
X247999D01*
X248832Y82233D01*
Y83066D01*
X247999Y83899D01*
X245500D01*
X248832Y76398D02*
X245500D01*
Y73899D01*
X247166Y74732D01*
X247999D01*
X248832Y73899D01*
Y72233D01*
X247999Y71400D01*
X246333D01*
X245500Y72233D01*
X212832Y81400D02*
X209500D01*
X212832Y84732D01*
Y85565D01*
X211999Y86398D01*
X210333D01*
X209500Y85565D01*
X211500Y71400D02*
X213166D01*
X212333D01*
Y76398D01*
X211500Y75565D01*
X255666Y158032D02*
X254999Y158699D01*
X253666D01*
X253000Y158032D01*
Y155367D01*
X253666Y154700D01*
X254999D01*
X255666Y155367D01*
X258998Y154700D02*
Y158699D01*
X256999Y156699D01*
X259665D01*
X255066Y203232D02*
X254399Y203899D01*
X253066D01*
X252400Y203232D01*
Y200567D01*
X253066Y199900D01*
X254399D01*
X255066Y200567D01*
X256399Y203232D02*
X257065Y203899D01*
X258398D01*
X259065Y203232D01*
Y202566D01*
X258398Y201899D01*
X257732D01*
X258398D01*
X259065Y201233D01*
Y200567D01*
X258398Y199900D01*
X257065D01*
X256399Y200567D01*
X262800Y209300D02*
Y213299D01*
X264799D01*
X265466Y212632D01*
Y211299D01*
X264799Y210633D01*
X262800D01*
X264133D02*
X265466Y209300D01*
X269464D02*
X266799D01*
X269464Y211966D01*
Y212632D01*
X268798Y213299D01*
X267465D01*
X266799Y212632D01*
X240800Y226200D02*
Y230199D01*
X242799D01*
X243466Y229532D01*
Y228199D01*
X242799Y227533D01*
X240800D01*
X242133D02*
X243466Y226200D01*
X244799Y229532D02*
X245465Y230199D01*
X246798D01*
X247464Y229532D01*
Y228866D01*
X246798Y228199D01*
X246132D01*
X246798D01*
X247464Y227533D01*
Y226866D01*
X246798Y226200D01*
X245465D01*
X244799Y226866D01*
X164566Y285132D02*
X163899Y285799D01*
X162566D01*
X161900Y285132D01*
Y282466D01*
X162566Y281800D01*
X163899D01*
X164566Y282466D01*
X165899Y281800D02*
X167232D01*
X166565D01*
Y285799D01*
X165899Y285132D01*
X171230Y281800D02*
Y285799D01*
X169231Y283799D01*
X171897D01*
X128700Y115000D02*
Y118999D01*
X130699D01*
X131366Y118332D01*
Y116999D01*
X130699Y116333D01*
X128700D01*
X130033D02*
X131366Y115000D01*
X132699D02*
X134032D01*
X133365D01*
Y118999D01*
X132699Y118332D01*
X136031Y115666D02*
X136697Y115000D01*
X138030D01*
X138697Y115666D01*
Y118332D01*
X138030Y118999D01*
X136697D01*
X136031Y118332D01*
Y117666D01*
X136697Y116999D01*
X138697D01*
X128700Y92700D02*
Y96699D01*
X130699D01*
X131366Y96032D01*
Y94699D01*
X130699Y94033D01*
X128700D01*
X130033D02*
X131366Y92700D01*
X132699D02*
X134032D01*
X133365D01*
Y96699D01*
X132699Y96032D01*
X136031D02*
X136697Y96699D01*
X138030D01*
X138697Y96032D01*
Y95366D01*
X138030Y94699D01*
X138697Y94033D01*
Y93366D01*
X138030Y92700D01*
X136697D01*
X136031Y93366D01*
Y94033D01*
X136697Y94699D01*
X136031Y95366D01*
Y96032D01*
X136697Y94699D02*
X138030D01*
X127800Y68900D02*
Y72899D01*
X129799D01*
X130466Y72232D01*
Y70899D01*
X129799Y70233D01*
X127800D01*
X129133D02*
X130466Y68900D01*
X131799D02*
X133132D01*
X132465D01*
Y72899D01*
X131799Y72232D01*
X135131Y72899D02*
X137797D01*
Y72232D01*
X135131Y69566D01*
Y68900D01*
X141400Y44400D02*
Y48399D01*
X143399D01*
X144066Y47732D01*
Y46399D01*
X143399Y45733D01*
X141400D01*
X142733D02*
X144066Y44400D01*
X145399D02*
X146732D01*
X146065D01*
Y48399D01*
X145399Y47732D01*
X151397Y48399D02*
X150064Y47732D01*
X148731Y46399D01*
Y45066D01*
X149397Y44400D01*
X150730D01*
X151397Y45066D01*
Y45733D01*
X150730Y46399D01*
X148731D01*
X129700Y139700D02*
Y143699D01*
X131699D01*
X132366Y143032D01*
Y141699D01*
X131699Y141033D01*
X129700D01*
X131033D02*
X132366Y139700D01*
X136364D02*
X133699D01*
X136364Y142366D01*
Y143032D01*
X135698Y143699D01*
X134365D01*
X133699Y143032D01*
X137697Y139700D02*
X139030D01*
X138364D01*
Y143699D01*
X137697Y143032D01*
X149566Y195399D02*
X148233D01*
X148899D01*
Y192067D01*
X148233Y191400D01*
X147566D01*
X146900Y192067D01*
X150899Y194732D02*
X151565Y195399D01*
X152898D01*
X153565Y194732D01*
Y194066D01*
X152898Y193399D01*
X152232D01*
X152898D01*
X153565Y192733D01*
Y192067D01*
X152898Y191400D01*
X151565D01*
X150899Y192067D01*
X21066Y173799D02*
X19733D01*
X20399D01*
Y170466D01*
X19733Y169800D01*
X19067D01*
X18400Y170466D01*
X25065Y169800D02*
X22399D01*
X25065Y172466D01*
Y173132D01*
X24398Y173799D01*
X23065D01*
X22399Y173132D01*
X19566Y192132D02*
X18899Y192799D01*
X17567D01*
X16900Y192132D01*
Y189467D01*
X17567Y188800D01*
X18899D01*
X19566Y189467D01*
X23564Y188800D02*
X20899D01*
X23564Y191466D01*
Y192132D01*
X22898Y192799D01*
X21565D01*
X20899Y192132D01*
X27563Y192799D02*
X26230Y192132D01*
X24897Y190799D01*
Y189467D01*
X25564Y188800D01*
X26897D01*
X27563Y189467D01*
Y190133D01*
X26897Y190799D01*
X24897D01*
X107268Y220766D02*
X106601Y220099D01*
Y218766D01*
X107268Y218100D01*
X109933D01*
X110600Y218766D01*
Y220099D01*
X109933Y220766D01*
X110600Y222099D02*
Y223432D01*
Y222765D01*
X106601D01*
X107268Y222099D01*
X106601Y225431D02*
Y228097D01*
X107268D01*
X109933Y225431D01*
X110600D01*
X103866Y123632D02*
X103199Y124299D01*
X101866D01*
X101200Y123632D01*
Y120966D01*
X101866Y120300D01*
X103199D01*
X103866Y120966D01*
X107864Y120300D02*
X105199D01*
X107864Y122966D01*
Y123632D01*
X107198Y124299D01*
X105865D01*
X105199Y123632D01*
X109197Y120300D02*
X110530D01*
X109864D01*
Y124299D01*
X109197Y123632D01*
X112634Y153468D02*
X113301Y152801D01*
X114634D01*
X115300Y153468D01*
Y156133D01*
X114634Y156800D01*
X113301D01*
X112634Y156133D01*
X108635Y156800D02*
X111301D01*
X108635Y154134D01*
Y153468D01*
X109302Y152801D01*
X110635D01*
X111301Y153468D01*
X104637Y156800D02*
X107303D01*
X104637Y154134D01*
Y153468D01*
X105303Y152801D01*
X106636D01*
X107303Y153468D01*
X129068Y180466D02*
X128401Y179799D01*
Y178466D01*
X129068Y177800D01*
X131734D01*
X132400Y178466D01*
Y179799D01*
X131734Y180466D01*
X132400Y184465D02*
Y181799D01*
X129734Y184465D01*
X129068D01*
X128401Y183798D01*
Y182465D01*
X129068Y181799D01*
X128401Y185797D02*
Y188463D01*
X129068D01*
X131734Y185797D01*
X132400D01*
X122068Y180466D02*
X121401Y179799D01*
Y178466D01*
X122068Y177800D01*
X124733D01*
X125400Y178466D01*
Y179799D01*
X124733Y180466D01*
X125400Y184465D02*
Y181799D01*
X122734Y184465D01*
X122068D01*
X121401Y183798D01*
Y182465D01*
X122068Y181799D01*
Y185797D02*
X121401Y186464D01*
Y187797D01*
X122068Y188463D01*
X122734D01*
X123401Y187797D01*
X124067Y188463D01*
X124733D01*
X125400Y187797D01*
Y186464D01*
X124733Y185797D01*
X124067D01*
X123401Y186464D01*
X122734Y185797D01*
X122068D01*
X123401Y186464D02*
Y187797D01*
X117668Y217166D02*
X117001Y216499D01*
Y215166D01*
X117668Y214500D01*
X120334D01*
X121000Y215166D01*
Y216499D01*
X120334Y217166D01*
X121000Y221164D02*
Y218499D01*
X118334Y221164D01*
X117668D01*
X117001Y220498D01*
Y219165D01*
X117668Y218499D01*
X117001Y225163D02*
Y222497D01*
X119001D01*
X118334Y223830D01*
Y224497D01*
X119001Y225163D01*
X120334D01*
X121000Y224497D01*
Y223164D01*
X120334Y222497D01*
X127268Y217366D02*
X126601Y216699D01*
Y215366D01*
X127268Y214700D01*
X129934D01*
X130600Y215366D01*
Y216699D01*
X129934Y217366D01*
X130600Y221364D02*
Y218699D01*
X127934Y221364D01*
X127268D01*
X126601Y220698D01*
Y219365D01*
X127268Y218699D01*
Y222697D02*
X126601Y223364D01*
Y224697D01*
X127268Y225363D01*
X127934D01*
X128601Y224697D01*
Y224030D01*
Y224697D01*
X129267Y225363D01*
X129934D01*
X130600Y224697D01*
Y223364D01*
X129934Y222697D01*
X51536Y195462D02*
X50870Y194795D01*
Y193463D01*
X51536Y192796D01*
X54202D01*
X54869Y193463D01*
Y194795D01*
X54202Y195462D01*
X51536Y196795D02*
X50870Y197461D01*
Y198794D01*
X51536Y199461D01*
X52203D01*
X52869Y198794D01*
Y198128D01*
Y198794D01*
X53536Y199461D01*
X54202D01*
X54869Y198794D01*
Y197461D01*
X54202Y196795D01*
X54869Y200794D02*
Y202126D01*
Y201460D01*
X50870D01*
X51536Y200794D01*
X51643Y243915D02*
X50976Y243248D01*
Y241915D01*
X51643Y241249D01*
X54308D01*
X54975Y241915D01*
Y243248D01*
X54308Y243915D01*
X54975Y247913D02*
Y245248D01*
X52309Y247913D01*
X51643D01*
X50976Y247247D01*
Y245914D01*
X51643Y245248D01*
X54308Y249246D02*
X54975Y249913D01*
Y251246D01*
X54308Y251912D01*
X51643D01*
X50976Y251246D01*
Y249913D01*
X51643Y249246D01*
X52309D01*
X52975Y249913D01*
Y251912D01*
X150466Y285232D02*
X149799Y285899D01*
X148467D01*
X147800Y285232D01*
Y282566D01*
X148467Y281900D01*
X149799D01*
X150466Y282566D01*
X151799Y281900D02*
X153132D01*
X152465D01*
Y285899D01*
X151799Y285232D01*
X155131D02*
X155797Y285899D01*
X157130D01*
X157797Y285232D01*
Y284566D01*
X157130Y283899D01*
X156464D01*
X157130D01*
X157797Y283233D01*
Y282566D01*
X157130Y281900D01*
X155797D01*
X155131Y282566D01*
X193000Y87800D02*
Y91799D01*
X194999D01*
X195666Y91132D01*
Y89799D01*
X194999Y89133D01*
X193000D01*
X194333D02*
X195666Y87800D01*
X196999Y91132D02*
X197665Y91799D01*
X198998D01*
X199664Y91132D01*
Y90466D01*
X198998Y89799D01*
X199664Y89133D01*
Y88466D01*
X198998Y87800D01*
X197665D01*
X196999Y88466D01*
Y89133D01*
X197665Y89799D01*
X196999Y90466D01*
Y91132D01*
X197665Y89799D02*
X198998D01*
X260800Y94700D02*
Y98699D01*
X262799D01*
X263466Y98032D01*
Y96699D01*
X262799Y96033D01*
X260800D01*
X262133D02*
X263466Y94700D01*
X264799D02*
X266132D01*
X265465D01*
Y98699D01*
X264799Y98032D01*
X220300Y49900D02*
Y53899D01*
X222299D01*
X222966Y53232D01*
Y51899D01*
X222299Y51233D01*
X220300D01*
X221633D02*
X222966Y49900D01*
X226964Y53899D02*
X225632Y53232D01*
X224299Y51899D01*
Y50566D01*
X224965Y49900D01*
X226298D01*
X226964Y50566D01*
Y51233D01*
X226298Y51899D01*
X224299D01*
X187800Y50400D02*
Y54399D01*
X189799D01*
X190466Y53732D01*
Y52399D01*
X189799Y51733D01*
X187800D01*
X189133D02*
X190466Y50400D01*
X194465Y54399D02*
X191799D01*
Y52399D01*
X193132Y53066D01*
X193798D01*
X194465Y52399D01*
Y51066D01*
X193798Y50400D01*
X192465D01*
X191799Y51066D01*
X179528Y289826D02*
Y286493D01*
X180194Y285827D01*
X181527D01*
X182193Y286493D01*
Y289826D01*
X186192Y285827D02*
X183526D01*
X186192Y288493D01*
Y289159D01*
X185526Y289826D01*
X184193D01*
X183526Y289159D01*
X168110Y293762D02*
Y289764D01*
X170110D01*
X170776Y290430D01*
Y293096D01*
X170110Y293762D01*
X168110D01*
X172109Y289764D02*
X173442D01*
X172775D01*
Y293762D01*
X172109Y293096D01*
X173794Y232568D02*
X177792D01*
Y230568D01*
X177126Y229902D01*
X175793D01*
X175127Y230568D01*
Y232568D01*
X173794Y228569D02*
Y227236D01*
Y227903D01*
X177792D01*
X177126Y228569D01*
Y225237D02*
X177792Y224570D01*
Y223237D01*
X177126Y222571D01*
X174460D01*
X173794Y223237D01*
Y224570D01*
X174460Y225237D01*
X177126D01*
X24000Y256799D02*
Y256132D01*
X25333Y254799D01*
X26666Y256132D01*
Y256799D01*
X25333Y254799D02*
Y252800D01*
X30665D02*
X27999D01*
X30665Y255466D01*
Y256132D01*
X29998Y256799D01*
X28665D01*
X27999Y256132D01*
X240100Y115399D02*
Y114732D01*
X241433Y113399D01*
X242766Y114732D01*
Y115399D01*
X241433Y113399D02*
Y111400D01*
X244099D02*
X245432D01*
X244765D01*
Y115399D01*
X244099Y114732D01*
X246000Y170901D02*
Y174233D01*
X245334Y174900D01*
X244001D01*
X243334Y174233D01*
Y170901D01*
X242001Y174900D02*
X240668D01*
X241335D01*
Y170901D01*
X242001Y171568D01*
X162462Y127975D02*
X161795Y128641D01*
X160462D01*
X159796Y127975D01*
Y127308D01*
X160462Y126642D01*
X161795D01*
X162462Y125975D01*
Y125309D01*
X161795Y124643D01*
X160462D01*
X159796Y125309D01*
X163795Y128641D02*
Y124643D01*
X165128Y125975D01*
X166461Y124643D01*
Y128641D01*
X167794Y124643D02*
X169126D01*
X168460D01*
Y128641D01*
X167794Y127975D01*
X69400Y78800D02*
Y82799D01*
X71399D01*
X72066Y82132D01*
Y80799D01*
X71399Y80133D01*
X69400D01*
X70733D02*
X72066Y78800D01*
X73399D02*
X74732D01*
X74065D01*
Y82799D01*
X73399Y82132D01*
X79397Y82799D02*
X76731D01*
Y80799D01*
X78064Y81466D01*
X78730D01*
X79397Y80799D01*
Y79466D01*
X78730Y78800D01*
X77397D01*
X76731Y79466D01*
X75500Y53300D02*
Y57299D01*
X77499D01*
X78166Y56632D01*
Y55299D01*
X77499Y54633D01*
X75500D01*
X76833D02*
X78166Y53300D01*
X79499D02*
X80832D01*
X80165D01*
Y57299D01*
X79499Y56632D01*
X84830Y53300D02*
Y57299D01*
X82831Y55299D01*
X85497D01*
X88600Y78600D02*
Y82599D01*
X90599D01*
X91266Y81932D01*
Y80599D01*
X90599Y79933D01*
X88600D01*
X89933D02*
X91266Y78600D01*
X92599D02*
X93932D01*
X93265D01*
Y82599D01*
X92599Y81932D01*
X95931D02*
X96597Y82599D01*
X97930D01*
X98597Y81932D01*
Y81266D01*
X97930Y80599D01*
X97264D01*
X97930D01*
X98597Y79933D01*
Y79266D01*
X97930Y78600D01*
X96597D01*
X95931Y79266D01*
X22100Y78600D02*
Y82599D01*
X24099D01*
X24766Y81932D01*
Y80599D01*
X24099Y79933D01*
X22100D01*
X23433D02*
X24766Y78600D01*
X26099D02*
X27432D01*
X26765D01*
Y82599D01*
X26099Y81932D01*
X32097Y78600D02*
X29431D01*
X32097Y81266D01*
Y81932D01*
X31430Y82599D01*
X30097D01*
X29431Y81932D01*
X29800Y53300D02*
Y57299D01*
X31799D01*
X32466Y56632D01*
Y55299D01*
X31799Y54633D01*
X29800D01*
X31133D02*
X32466Y53300D01*
X33799D02*
X35132D01*
X34465D01*
Y57299D01*
X33799Y56632D01*
X37131Y53300D02*
X38464D01*
X37797D01*
Y57299D01*
X37131Y56632D01*
X43500Y78700D02*
Y82699D01*
X45499D01*
X46166Y82032D01*
Y80699D01*
X45499Y80033D01*
X43500D01*
X44833D02*
X46166Y78700D01*
X47499D02*
X48832D01*
X48165D01*
Y82699D01*
X47499Y82032D01*
X50831D02*
X51497Y82699D01*
X52830D01*
X53497Y82032D01*
Y79366D01*
X52830Y78700D01*
X51497D01*
X50831Y79366D01*
Y82032D01*
X168100Y144700D02*
Y148699D01*
X170099D01*
X170766Y148032D01*
Y146699D01*
X170099Y146033D01*
X168100D01*
X169433D02*
X170766Y144700D01*
X172099Y145367D02*
X172765Y144700D01*
X174098D01*
X174765Y145367D01*
Y148032D01*
X174098Y148699D01*
X172765D01*
X172099Y148032D01*
Y147366D01*
X172765Y146699D01*
X174765D01*
X150955Y307900D02*
Y311899D01*
X152954D01*
X153621Y311232D01*
Y309899D01*
X152954Y309233D01*
X150955D01*
X152288D02*
X153621Y307900D01*
X156953D02*
Y311899D01*
X154954Y309899D01*
X157620D01*
X119200Y245800D02*
Y249799D01*
X121199D01*
X121866Y249132D01*
Y247799D01*
X121199Y247133D01*
X119200D01*
X123199Y246466D02*
X123865Y245800D01*
X125198D01*
X125865Y246466D01*
Y249132D01*
X125198Y249799D01*
X123865D01*
X123199Y249132D01*
Y248466D01*
X123865Y247799D01*
X125865D01*
X44000Y286700D02*
Y290699D01*
X45999D01*
X46666Y290032D01*
Y288699D01*
X45999Y288033D01*
X44000D01*
X47999Y290032D02*
X48665Y290699D01*
X49998D01*
X50665Y290032D01*
Y289366D01*
X49998Y288699D01*
X50665Y288033D01*
Y287366D01*
X49998Y286700D01*
X48665D01*
X47999Y287366D01*
Y288033D01*
X48665Y288699D01*
X47999Y289366D01*
Y290032D01*
X48665Y288699D02*
X49998D01*
X245000Y37700D02*
Y41699D01*
X246999D01*
X247666Y41032D01*
Y39699D01*
X246999Y39033D01*
X245000D01*
X248999Y41699D02*
X251664D01*
Y41032D01*
X248999Y38366D01*
Y37700D01*
X314235Y234120D02*
X310236D01*
Y236120D01*
X310902Y236786D01*
X312235D01*
X312902Y236120D01*
Y234120D01*
X310236Y240785D02*
X310902Y239452D01*
X312235Y238119D01*
X313568D01*
X314235Y238786D01*
Y240119D01*
X313568Y240785D01*
X312902D01*
X312235Y240119D01*
Y238119D01*
X109600Y37700D02*
Y41699D01*
X111599D01*
X112266Y41032D01*
Y39699D01*
X111599Y39033D01*
X109600D01*
X116264Y41699D02*
X113599D01*
Y39699D01*
X114932Y40366D01*
X115598D01*
X116264Y39699D01*
Y38366D01*
X115598Y37700D01*
X114265D01*
X113599Y38366D01*
X64000Y37700D02*
Y41699D01*
X65999D01*
X66666Y41032D01*
Y39699D01*
X65999Y39033D01*
X64000D01*
X69998Y37700D02*
Y41699D01*
X67999Y39699D01*
X70665D01*
X18600Y38000D02*
Y41999D01*
X20599D01*
X21266Y41332D01*
Y39999D01*
X20599Y39333D01*
X18600D01*
X22599Y41332D02*
X23265Y41999D01*
X24598D01*
X25264Y41332D01*
Y40666D01*
X24598Y39999D01*
X23932D01*
X24598D01*
X25264Y39333D01*
Y38666D01*
X24598Y38000D01*
X23265D01*
X22599Y38666D01*
X272103Y76731D02*
X270770D01*
X271436D01*
Y73399D01*
X270770Y72732D01*
X270104D01*
X269437Y73399D01*
X273436Y72732D02*
X274769D01*
X274102D01*
Y76731D01*
X273436Y76064D01*
X249784Y255179D02*
Y251180D01*
X251784D01*
X252450Y251847D01*
Y254513D01*
X251784Y255179D01*
X249784D01*
X256449D02*
X253783D01*
Y253180D01*
X255116Y253846D01*
X255782D01*
X256449Y253180D01*
Y251847D01*
X255782Y251180D01*
X254449D01*
X253783Y251847D01*
X260720Y255244D02*
Y251246D01*
X262720D01*
X263386Y251912D01*
Y254578D01*
X262720Y255244D01*
X260720D01*
X266719Y251246D02*
Y255244D01*
X264719Y253245D01*
X267385D01*
X207139Y36070D02*
Y32072D01*
X209138D01*
X209804Y32738D01*
Y35404D01*
X209138Y36070D01*
X207139D01*
X211137Y35404D02*
X211804Y36070D01*
X213137D01*
X213803Y35404D01*
Y34738D01*
X213137Y34071D01*
X212470D01*
X213137D01*
X213803Y33405D01*
Y32738D01*
X213137Y32072D01*
X211804D01*
X211137Y32738D01*
X173739Y36070D02*
Y32072D01*
X175738D01*
X176404Y32738D01*
Y35404D01*
X175738Y36070D01*
X173739D01*
X180403Y32072D02*
X177737D01*
X180403Y34738D01*
Y35404D01*
X179737Y36070D01*
X178404D01*
X177737Y35404D01*
X137466Y221232D02*
X136799Y221899D01*
X135467D01*
X134800Y221232D01*
Y218566D01*
X135467Y217900D01*
X136799D01*
X137466Y218566D01*
X138799Y221232D02*
X139465Y221899D01*
X140798D01*
X141464Y221232D01*
Y220566D01*
X140798Y219899D01*
X140132D01*
X140798D01*
X141464Y219233D01*
Y218566D01*
X140798Y217900D01*
X139465D01*
X138799Y218566D01*
X142797Y221232D02*
X143464Y221899D01*
X144797D01*
X145463Y221232D01*
Y218566D01*
X144797Y217900D01*
X143464D01*
X142797Y218566D01*
Y221232D01*
X106766Y149432D02*
X106099Y150099D01*
X104766D01*
X104100Y149432D01*
Y146766D01*
X104766Y146100D01*
X106099D01*
X106766Y146766D01*
X110765Y146100D02*
X108099D01*
X110765Y148766D01*
Y149432D01*
X110098Y150099D01*
X108765D01*
X108099Y149432D01*
X114097Y146100D02*
Y150099D01*
X112097Y148099D01*
X114763D01*
X73666Y111932D02*
X72999Y112599D01*
X71666D01*
X71000Y111932D01*
Y109266D01*
X71666Y108600D01*
X72999D01*
X73666Y109266D01*
X77665Y108600D02*
X74999D01*
X77665Y111266D01*
Y111932D01*
X76998Y112599D01*
X75665D01*
X74999Y111932D01*
X78997D02*
X79664Y112599D01*
X80997D01*
X81663Y111932D01*
Y109266D01*
X80997Y108600D01*
X79664D01*
X78997Y109266D01*
Y111932D01*
X92866Y111632D02*
X92199Y112299D01*
X90866D01*
X90200Y111632D01*
Y108967D01*
X90866Y108300D01*
X92199D01*
X92866Y108967D01*
X94199Y108300D02*
X95532D01*
X94865D01*
Y112299D01*
X94199Y111632D01*
X100197Y112299D02*
X98864Y111632D01*
X97531Y110299D01*
Y108967D01*
X98197Y108300D01*
X99530D01*
X100197Y108967D01*
Y109633D01*
X99530Y110299D01*
X97531D01*
X219066Y305232D02*
X218399Y305899D01*
X217066D01*
X216400Y305232D01*
Y302566D01*
X217066Y301900D01*
X218399D01*
X219066Y302566D01*
X220399Y301900D02*
X221732D01*
X221065D01*
Y305899D01*
X220399Y305232D01*
X226397Y301900D02*
X223731D01*
X226397Y304566D01*
Y305232D01*
X225730Y305899D01*
X224397D01*
X223731Y305232D01*
X233566D02*
X232899Y305899D01*
X231566D01*
X230900Y305232D01*
Y302566D01*
X231566Y301900D01*
X232899D01*
X233566Y302566D01*
X234899Y301900D02*
X236232D01*
X235565D01*
Y305899D01*
X234899Y305232D01*
X238231Y301900D02*
X239564D01*
X238897D01*
Y305899D01*
X238231Y305232D01*
X26166Y111632D02*
X25499Y112299D01*
X24167D01*
X23500Y111632D01*
Y108967D01*
X24167Y108300D01*
X25499D01*
X26166Y108967D01*
X27499Y108300D02*
X28832D01*
X28165D01*
Y112299D01*
X27499Y111632D01*
X30831D02*
X31497Y112299D01*
X32830D01*
X33497Y111632D01*
Y108967D01*
X32830Y108300D01*
X31497D01*
X30831Y108967D01*
Y111632D01*
X47766Y111732D02*
X47099Y112399D01*
X45766D01*
X45100Y111732D01*
Y109066D01*
X45766Y108400D01*
X47099D01*
X47766Y109066D01*
X49099Y111732D02*
X49765Y112399D01*
X51098D01*
X51765Y111732D01*
Y111066D01*
X51098Y110399D01*
X51765Y109733D01*
Y109066D01*
X51098Y108400D01*
X49765D01*
X49099Y109066D01*
Y109733D01*
X49765Y110399D01*
X49099Y111066D01*
Y111732D01*
X49765Y110399D02*
X51098D01*
X244382Y146436D02*
X245049Y145770D01*
X246382D01*
X247048Y146436D01*
Y149102D01*
X246382Y149768D01*
X245049D01*
X244382Y149102D01*
X243049Y145770D02*
X240384D01*
Y146436D01*
X243049Y149102D01*
Y149768D01*
X204167Y146336D02*
X204833Y145670D01*
X206166D01*
X206832Y146336D01*
Y149002D01*
X206166Y149669D01*
X204833D01*
X204167Y149002D01*
X200168Y145670D02*
X201501Y146336D01*
X202834Y147669D01*
Y149002D01*
X202167Y149669D01*
X200834D01*
X200168Y149002D01*
Y148336D01*
X200834Y147669D01*
X202834D01*
X205566Y228532D02*
X204899Y229199D01*
X203567D01*
X202900Y228532D01*
Y225866D01*
X203567Y225200D01*
X204899D01*
X205566Y225866D01*
X209564Y225200D02*
X206899D01*
X209564Y227866D01*
Y228532D01*
X208898Y229199D01*
X207565D01*
X206899Y228532D01*
X198066Y191532D02*
X197399Y192199D01*
X196066D01*
X195400Y191532D01*
Y188866D01*
X196066Y188200D01*
X197399D01*
X198066Y188866D01*
X199399Y188200D02*
X200732D01*
X200065D01*
Y192199D01*
X199399Y191532D01*
X73900Y218299D02*
Y214966D01*
X74566Y214300D01*
X75899D01*
X76566Y214966D01*
Y218299D01*
X79898Y214300D02*
Y218299D01*
X77899Y216299D01*
X80564D01*
X272453Y228491D02*
Y232490D01*
X274452D01*
X275119Y231824D01*
Y230491D01*
X274452Y229824D01*
X272453D01*
X276451Y228491D02*
X277784D01*
X277118D01*
Y232490D01*
X276451Y231824D01*
X279784Y228491D02*
X281117D01*
X280450D01*
Y232490D01*
X279784Y231824D01*
X134168Y270500D02*
X137500D01*
X134168Y267168D01*
Y266335D01*
X135001Y265502D01*
X136667D01*
X137500Y266335D01*
Y280500D02*
X135834D01*
X136667D01*
Y275502D01*
X137500Y276335D01*
X51500Y280500D02*
X49834D01*
X50667D01*
Y275502D01*
X51500Y276335D01*
X44002Y275502D02*
X47335D01*
Y278001D01*
X45669Y277168D01*
X44835D01*
X44002Y278001D01*
Y279667D01*
X44835Y280500D01*
X46502D01*
X47335Y279667D01*
X51500Y270500D02*
X49834D01*
X50667D01*
Y265502D01*
X51500Y266335D01*
X44002Y265502D02*
X45669Y266335D01*
X47335Y268001D01*
Y269667D01*
X46502Y270500D01*
X44835D01*
X44002Y269667D01*
Y268834D01*
X44835Y268001D01*
X47335D01*
X330835Y242888D02*
Y246220D01*
X334167Y242888D01*
X335000D01*
X335833Y243721D01*
Y245387D01*
X335000Y246220D01*
X320835D02*
Y244554D01*
Y245387D01*
X325833D01*
X325000Y246220D01*
Y80221D02*
X325833Y79387D01*
Y77721D01*
X325000Y76888D01*
X324167D01*
X323334Y77721D01*
Y78554D01*
Y77721D01*
X322501Y76888D01*
X321668D01*
X320835Y77721D01*
Y79387D01*
X321668Y80221D01*
X320835Y75222D02*
Y73556D01*
Y74389D01*
X325833D01*
X325000Y75222D01*
X335000Y80221D02*
X335833Y79387D01*
Y77721D01*
X335000Y76888D01*
X334167D01*
X333334Y77721D01*
Y78554D01*
Y77721D01*
X332501Y76888D01*
X331668D01*
X330835Y77721D01*
Y79387D01*
X331668Y80221D01*
X330835Y71890D02*
Y75222D01*
X334167Y71890D01*
X335000D01*
X335833Y72723D01*
Y74389D01*
X335000Y75222D01*
M02*
