%FSLAX25Y25*%
%MOIN*%
G70*
G01*
G75*
G04 Layer_Color=16711935*
%ADD10C,0.01000*%
%ADD11C,0.02500*%
%ADD12C,0.03000*%
%ADD13R,0.07087X0.06299*%
%ADD14R,0.01575X0.09449*%
%ADD15R,0.05512X0.05906*%
%ADD16R,0.01181X0.04724*%
%ADD17R,0.04724X0.01181*%
%ADD18R,0.11811X0.11811*%
%ADD19R,0.05906X0.05512*%
%ADD20R,0.06299X0.05984*%
%ADD21R,0.05984X0.06299*%
%ADD22R,0.08268X0.12598*%
%ADD23R,0.08268X0.03543*%
%ADD24R,0.03937X0.17716*%
%ADD25O,0.07087X0.01181*%
%ADD26O,0.01181X0.07087*%
%ADD27R,0.17716X0.03937*%
%ADD28R,0.05906X0.05906*%
%ADD29C,0.05906*%
%ADD30C,0.06693*%
%ADD31R,0.05906X0.05906*%
%ADD32C,0.19685*%
%ADD33O,0.06299X0.09843*%
%ADD34R,0.06299X0.09843*%
%ADD35C,0.04724*%
%ADD36C,0.03543*%
%ADD37C,0.03500*%
%ADD38O,0.01378X0.08268*%
%ADD39C,0.00984*%
%ADD40C,0.02362*%
%ADD41C,0.00394*%
%ADD42C,0.00787*%
%ADD43C,0.00800*%
%ADD44R,0.07887X0.07099*%
%ADD45R,0.02375X0.10249*%
%ADD46R,0.06312X0.06706*%
%ADD47R,0.01981X0.05524*%
%ADD48R,0.05524X0.01981*%
%ADD49R,0.12611X0.12611*%
%ADD50R,0.06706X0.06312*%
%ADD51R,0.07099X0.06784*%
%ADD52R,0.06784X0.07099*%
%ADD53R,0.09068X0.13398*%
%ADD54R,0.09068X0.04343*%
%ADD55R,0.04737X0.18517*%
%ADD56O,0.07887X0.01981*%
%ADD57O,0.01981X0.07887*%
%ADD58R,0.18517X0.04737*%
%ADD59R,0.06706X0.06706*%
%ADD60C,0.06706*%
%ADD61C,0.07493*%
%ADD62R,0.06706X0.06706*%
%ADD63C,0.20485*%
%ADD64O,0.07099X0.10642*%
%ADD65R,0.07099X0.10642*%
%ADD66C,0.05524*%
%ADD67C,0.04343*%
%ADD68C,0.04300*%
%ADD69O,0.02178X0.09068*%
D46*
X67337Y221800D02*
D03*
X59463D02*
D03*
X67337Y211800D02*
D03*
X59463D02*
D03*
X276378Y271260D02*
D03*
X284252D02*
D03*
D50*
X63800Y175837D02*
D03*
Y167963D02*
D03*
X73100Y175837D02*
D03*
Y167963D02*
D03*
D59*
X219500Y73400D02*
D03*
X139000Y194900D02*
D03*
X33900Y172800D02*
D03*
X123800Y237600D02*
D03*
X127500Y278500D02*
D03*
X277953Y219291D02*
D03*
D60*
X219500Y83400D02*
D03*
X229500Y73400D02*
D03*
Y83400D02*
D03*
X239500Y73400D02*
D03*
Y83400D02*
D03*
X173400Y214300D02*
D03*
Y204300D02*
D03*
Y194300D02*
D03*
Y184300D02*
D03*
X183800Y237600D02*
D03*
X173800D02*
D03*
X163800D02*
D03*
X153800D02*
D03*
X133800D02*
D03*
X143800D02*
D03*
X127500Y268500D02*
D03*
X117500Y278500D02*
D03*
Y268500D02*
D03*
X107500Y278500D02*
D03*
Y268500D02*
D03*
X97500Y278500D02*
D03*
Y268500D02*
D03*
X87500Y278500D02*
D03*
Y268500D02*
D03*
X77500Y278500D02*
D03*
Y268500D02*
D03*
X67500Y278500D02*
D03*
Y268500D02*
D03*
X57500Y278500D02*
D03*
Y268500D02*
D03*
X274016Y54567D02*
D03*
X332835Y86220D02*
D03*
X322835D02*
D03*
X332835Y96220D02*
D03*
X322835D02*
D03*
X332835Y106220D02*
D03*
X322835D02*
D03*
X332835Y116220D02*
D03*
X322835D02*
D03*
X332835Y126220D02*
D03*
X322835D02*
D03*
X332835Y136220D02*
D03*
X322835D02*
D03*
X332835Y146220D02*
D03*
X322835D02*
D03*
X332835Y156220D02*
D03*
X322835D02*
D03*
X332835Y166220D02*
D03*
X322835D02*
D03*
X332835Y176220D02*
D03*
X322835D02*
D03*
X332835Y186220D02*
D03*
X322835D02*
D03*
X332835Y196220D02*
D03*
X322835D02*
D03*
X332835Y206220D02*
D03*
X322835D02*
D03*
X332835Y216220D02*
D03*
X322835D02*
D03*
X332835Y226220D02*
D03*
X322835D02*
D03*
X332835Y236220D02*
D03*
X287953Y219291D02*
D03*
D61*
X274385Y17400D02*
D03*
X254700D02*
D03*
X294070D02*
D03*
X119300D02*
D03*
X138985D02*
D03*
X73700D02*
D03*
X93385D02*
D03*
X28300Y17700D02*
D03*
X47985D02*
D03*
D62*
X173400Y174300D02*
D03*
X274016Y64567D02*
D03*
X322835Y236220D02*
D03*
D63*
X326772Y27559D02*
D03*
Y287402D02*
D03*
D64*
X162583Y92878D02*
D03*
X180300D02*
D03*
X162583Y116500D02*
D03*
D65*
X180300D02*
D03*
D66*
X222670Y18798D02*
D03*
X210859D02*
D03*
X189206D02*
D03*
X177395D02*
D03*
D67*
X261695Y298361D02*
D03*
X279017D02*
D03*
D68*
X264500Y266200D02*
D03*
X244094Y275590D02*
D03*
X231100Y228500D02*
D03*
X189400Y60200D02*
D03*
X243900Y163700D02*
D03*
X225900Y199000D02*
D03*
X216200Y186900D02*
D03*
X220100Y196800D02*
D03*
X218950Y218850D02*
D03*
X221800Y232400D02*
D03*
X223800Y222900D02*
D03*
X226900Y213700D02*
D03*
X229550Y233500D02*
D03*
X232900Y220000D02*
D03*
X235600Y224100D02*
D03*
X199700Y165600D02*
D03*
X255800Y104900D02*
D03*
X249300Y192000D02*
D03*
X262600Y181900D02*
D03*
X269000Y267900D02*
D03*
X265000Y249600D02*
D03*
X254300Y250600D02*
D03*
X103700Y220800D02*
D03*
X62747Y196847D02*
D03*
X79400Y180900D02*
D03*
X67300Y204500D02*
D03*
X259700Y270800D02*
D03*
X255000Y273400D02*
D03*
D69*
X288287Y232480D02*
D03*
X285728D02*
D03*
X283169D02*
D03*
X280610D02*
D03*
X278051D02*
D03*
X275492D02*
D03*
X272933D02*
D03*
X270374D02*
D03*
X267815D02*
D03*
X265256D02*
D03*
X262697D02*
D03*
X260138D02*
D03*
X257579D02*
D03*
X255020D02*
D03*
X288287Y259646D02*
D03*
X285728D02*
D03*
X283169D02*
D03*
X280610D02*
D03*
X278051D02*
D03*
X275492D02*
D03*
X272933D02*
D03*
X270374D02*
D03*
X267815D02*
D03*
X265256D02*
D03*
X262697D02*
D03*
X260138D02*
D03*
X257579D02*
D03*
X255020D02*
D03*
M02*
