%FSLAX25Y25*%
%MOIN*%
G70*
G01*
G75*
G04 Layer_Color=32896*
%ADD10C,0.01000*%
%ADD11C,0.02500*%
%ADD12C,0.03000*%
%ADD13R,0.07087X0.06299*%
%ADD14R,0.01575X0.09449*%
%ADD15R,0.05512X0.05906*%
%ADD16R,0.01181X0.04724*%
%ADD17R,0.04724X0.01181*%
%ADD18R,0.11811X0.11811*%
%ADD19R,0.05906X0.05512*%
%ADD20R,0.06299X0.05984*%
%ADD21R,0.05984X0.06299*%
%ADD22R,0.08268X0.12598*%
%ADD23R,0.08268X0.03543*%
%ADD24R,0.03937X0.17716*%
%ADD25O,0.07087X0.01181*%
%ADD26O,0.01181X0.07087*%
%ADD27R,0.17716X0.03937*%
%ADD28R,0.05906X0.05906*%
%ADD29C,0.05906*%
%ADD30C,0.06693*%
%ADD31R,0.05906X0.05906*%
%ADD32C,0.19685*%
%ADD33O,0.06299X0.09843*%
%ADD34R,0.06299X0.09843*%
%ADD35C,0.04724*%
%ADD36C,0.03543*%
%ADD37C,0.03500*%
%ADD38O,0.01378X0.08268*%
%ADD39C,0.00984*%
%ADD40C,0.02362*%
%ADD41C,0.00394*%
%ADD42C,0.00787*%
%ADD43C,0.00800*%
%ADD44R,0.07887X0.07099*%
%ADD45R,0.02375X0.10249*%
%ADD46R,0.06312X0.06706*%
%ADD47R,0.01981X0.05524*%
%ADD48R,0.05524X0.01981*%
%ADD49R,0.12611X0.12611*%
%ADD50R,0.06706X0.06312*%
%ADD51R,0.07099X0.06784*%
%ADD52R,0.06784X0.07099*%
%ADD53R,0.09068X0.13398*%
%ADD54R,0.09068X0.04343*%
%ADD55R,0.04737X0.18517*%
%ADD56O,0.07887X0.01981*%
%ADD57O,0.01981X0.07887*%
%ADD58R,0.18517X0.04737*%
%ADD59R,0.06706X0.06706*%
%ADD60C,0.06706*%
%ADD61C,0.07493*%
%ADD62R,0.06706X0.06706*%
%ADD63C,0.20485*%
%ADD64O,0.07099X0.10642*%
%ADD65R,0.07099X0.10642*%
%ADD66C,0.05524*%
%ADD67C,0.04343*%
%ADD68C,0.04300*%
%ADD69O,0.02178X0.09068*%
D39*
X291634Y232480D02*
G03*
X291634Y232480I-492J0D01*
G01*
D40*
X289567Y242126D02*
G03*
X289567Y242126I-1181J0D01*
G01*
D42*
X61241Y171900D02*
X66359D01*
X70541D02*
X75659D01*
X63400Y219241D02*
Y224359D01*
Y209241D02*
Y214359D01*
X250984Y238189D02*
X292323D01*
X250984Y253937D02*
X292323D01*
Y238189D02*
Y253937D01*
X250984Y238189D02*
Y253937D01*
X280315Y268701D02*
Y273819D01*
D43*
X62466Y159568D02*
X61799Y158901D01*
X60466D01*
X59800Y159568D01*
Y162233D01*
X60466Y162900D01*
X61799D01*
X62466Y162233D01*
X63799D02*
X64465Y162900D01*
X65798D01*
X66465Y162233D01*
Y159568D01*
X65798Y158901D01*
X64465D01*
X63799Y159568D01*
Y160234D01*
X64465Y160901D01*
X66465D01*
X70066Y158868D02*
X69399Y158201D01*
X68066D01*
X67400Y158868D01*
Y161533D01*
X68066Y162200D01*
X69399D01*
X70066Y161533D01*
X71399Y162200D02*
X72732D01*
X72065D01*
Y158201D01*
X71399Y158868D01*
X77397Y158201D02*
X74731D01*
Y160201D01*
X76064Y159534D01*
X76730D01*
X77397Y160201D01*
Y161533D01*
X76730Y162200D01*
X75397D01*
X74731Y161533D01*
X51734Y223132D02*
X52401Y223799D01*
X53734D01*
X54400Y223132D01*
Y220466D01*
X53734Y219800D01*
X52401D01*
X51734Y220466D01*
X50401Y219800D02*
X49068D01*
X49735D01*
Y223799D01*
X50401Y223132D01*
X47069Y220466D02*
X46403Y219800D01*
X45070D01*
X44403Y220466D01*
Y223132D01*
X45070Y223799D01*
X46403D01*
X47069Y223132D01*
Y222466D01*
X46403Y221799D01*
X44403D01*
X50734Y213132D02*
X51401Y213799D01*
X52734D01*
X53400Y213132D01*
Y210466D01*
X52734Y209800D01*
X51401D01*
X50734Y210466D01*
X49401Y209800D02*
X48068D01*
X48735D01*
Y213799D01*
X49401Y213132D01*
X46069D02*
X45403Y213799D01*
X44070D01*
X43403Y213132D01*
Y212466D01*
X44070Y211799D01*
X43403Y211133D01*
Y210466D01*
X44070Y209800D01*
X45403D01*
X46069Y210466D01*
Y211133D01*
X45403Y211799D01*
X46069Y212466D01*
Y213132D01*
X45403Y211799D02*
X44070D01*
X299213Y261085D02*
Y257753D01*
X298546Y257087D01*
X297213D01*
X296547Y257753D01*
Y261085D01*
X295214Y260419D02*
X294547Y261085D01*
X293215D01*
X292548Y260419D01*
Y259752D01*
X293215Y259086D01*
X293881D01*
X293215D01*
X292548Y258419D01*
Y257753D01*
X293215Y257087D01*
X294547D01*
X295214Y257753D01*
X293791Y273017D02*
X294457Y273684D01*
X295790D01*
X296457Y273017D01*
Y270352D01*
X295790Y269685D01*
X294457D01*
X293791Y270352D01*
X289792Y273684D02*
X292458D01*
Y271684D01*
X291125Y272351D01*
X290459D01*
X289792Y271684D01*
Y270352D01*
X290459Y269685D01*
X291792D01*
X292458Y270352D01*
M02*
