%FSLAX25Y25*%
%MOIN*%
G70*
G01*
G75*
G04 Layer_Color=2752767*
%ADD10C,0.00394*%
%ADD11C,0.00500*%
%ADD12C,0.00667*%
D11*
X217500Y71400D02*
Y75400D01*
X221500D01*
Y71400D01*
X217500D01*
Y81400D02*
Y85400D01*
X221500D01*
Y81400D01*
X217500D01*
X227500Y71400D02*
Y75400D01*
X231500D01*
Y71400D01*
X227500D01*
Y81400D02*
Y85400D01*
X231500D01*
Y81400D01*
X227500D01*
X237500Y71400D02*
Y75400D01*
X241500D01*
Y71400D01*
X237500D01*
Y81400D02*
Y85400D01*
X241500D01*
Y81400D01*
X237500D01*
X137000Y192900D02*
Y196900D01*
X141000D01*
Y192900D01*
X137000D01*
X31900Y170800D02*
Y174800D01*
X35900D01*
Y170800D01*
X31900D01*
X171400Y212300D02*
Y216300D01*
X175400D01*
Y212300D01*
X171400D01*
Y202300D02*
Y206300D01*
X175400D01*
Y202300D01*
X171400D01*
Y192300D02*
Y196300D01*
X175400D01*
Y192300D01*
X171400D01*
Y182300D02*
Y186300D01*
X175400D01*
Y182300D01*
X171400D01*
Y172300D02*
Y176300D01*
X175400D01*
Y172300D01*
X171400D01*
X326772Y25559D02*
X324772Y29559D01*
X328772D01*
X326772Y25559D01*
Y285402D02*
X324772Y289402D01*
X328772D01*
X326772Y285402D01*
X181800Y235600D02*
Y239600D01*
X185800D01*
Y235600D01*
X181800D01*
X171800D02*
Y239600D01*
X175800D01*
Y235600D01*
X171800D01*
X161800D02*
Y239600D01*
X165800D01*
Y235600D01*
X161800D01*
X151800D02*
Y239600D01*
X155800D01*
Y235600D01*
X151800D01*
X131800D02*
Y239600D01*
X135800D01*
Y235600D01*
X131800D01*
X121800D02*
Y239600D01*
X125800D01*
Y235600D01*
X121800D01*
X141800D02*
Y239600D01*
X145800D01*
Y235600D01*
X141800D01*
X125500Y276500D02*
Y280500D01*
X129500D01*
Y276500D01*
X125500D01*
Y266500D02*
Y270500D01*
X129500D01*
Y266500D01*
X125500D01*
X115500Y276500D02*
Y280500D01*
X119500D01*
Y276500D01*
X115500D01*
Y266500D02*
Y270500D01*
X119500D01*
Y266500D01*
X115500D01*
X105500Y276500D02*
Y280500D01*
X109500D01*
Y276500D01*
X105500D01*
Y266500D02*
Y270500D01*
X109500D01*
Y266500D01*
X105500D01*
X95500Y276500D02*
Y280500D01*
X99500D01*
Y276500D01*
X95500D01*
Y266500D02*
Y270500D01*
X99500D01*
Y266500D01*
X95500D01*
X85500Y276500D02*
Y280500D01*
X89500D01*
Y276500D01*
X85500D01*
Y266500D02*
Y270500D01*
X89500D01*
Y266500D01*
X85500D01*
X75500Y276500D02*
Y280500D01*
X79500D01*
Y276500D01*
X75500D01*
Y266500D02*
Y270500D01*
X79500D01*
Y266500D01*
X75500D01*
X65500Y276500D02*
Y280500D01*
X69500D01*
Y276500D01*
X65500D01*
Y266500D02*
Y270500D01*
X69500D01*
Y266500D01*
X65500D01*
X55500Y276500D02*
Y280500D01*
X59500D01*
Y276500D01*
X55500D01*
Y266500D02*
Y270500D01*
X59500D01*
Y266500D01*
X55500D01*
X272016Y62567D02*
Y66567D01*
X276016D01*
Y62567D01*
X272016D01*
Y52567D02*
Y56567D01*
X276016D01*
Y52567D01*
X272016D01*
X222670Y16798D02*
X223670Y17798D01*
X224670D01*
X223670Y18798D01*
X224670Y19798D01*
X223670D01*
X222670Y20798D01*
X221670Y19798D01*
X220670D01*
X221670Y18798D01*
X220670Y17798D01*
X221670D01*
X222670Y16798D01*
X210859D02*
X211859Y17798D01*
X212859D01*
X211859Y18798D01*
X212859Y19798D01*
X211859D01*
X210859Y20798D01*
X209859Y19798D01*
X208859D01*
X209859Y18798D01*
X208859Y17798D01*
X209859D01*
X210859Y16798D01*
X189206D02*
X190206Y17798D01*
X191206D01*
X190206Y18798D01*
X191206Y19798D01*
X190206D01*
X189206Y20798D01*
X188206Y19798D01*
X187206D01*
X188206Y18798D01*
X187206Y17798D01*
X188206D01*
X189206Y16798D01*
X177395D02*
X178395Y17798D01*
X179395D01*
X178395Y18798D01*
X179395Y19798D01*
X178395D01*
X177395Y20798D01*
X176395Y19798D01*
X175395D01*
X176395Y18798D01*
X175395Y17798D01*
X176395D01*
X177395Y16798D01*
X330835Y84220D02*
Y88220D01*
X334835D01*
Y84220D01*
X330835D01*
X320835D02*
Y88220D01*
X324835D01*
Y84220D01*
X320835D01*
X330835Y94220D02*
Y98220D01*
X334835D01*
Y94220D01*
X330835D01*
X320835D02*
Y98220D01*
X324835D01*
Y94220D01*
X320835D01*
X330835Y104220D02*
Y108220D01*
X334835D01*
Y104220D01*
X330835D01*
X320835D02*
Y108220D01*
X324835D01*
Y104220D01*
X320835D01*
X330835Y114220D02*
Y118220D01*
X334835D01*
Y114220D01*
X330835D01*
X320835D02*
Y118220D01*
X324835D01*
Y114220D01*
X320835D01*
X330835Y124220D02*
Y128220D01*
X334835D01*
Y124220D01*
X330835D01*
X320835D02*
Y128220D01*
X324835D01*
Y124220D01*
X320835D01*
X330835Y134220D02*
Y138220D01*
X334835D01*
Y134220D01*
X330835D01*
X320835D02*
Y138220D01*
X324835D01*
Y134220D01*
X320835D01*
X330835Y144220D02*
Y148220D01*
X334835D01*
Y144220D01*
X330835D01*
X320835D02*
Y148220D01*
X324835D01*
Y144220D01*
X320835D01*
X330835Y154220D02*
Y158220D01*
X334835D01*
Y154220D01*
X330835D01*
X320835D02*
Y158220D01*
X324835D01*
Y154220D01*
X320835D01*
X330835Y164220D02*
Y168220D01*
X334835D01*
Y164220D01*
X330835D01*
X320835D02*
Y168220D01*
X324835D01*
Y164220D01*
X320835D01*
X330835Y174220D02*
Y178220D01*
X334835D01*
Y174220D01*
X330835D01*
X320835D02*
Y178220D01*
X324835D01*
Y174220D01*
X320835D01*
X330835Y184220D02*
Y188220D01*
X334835D01*
Y184220D01*
X330835D01*
X320835D02*
Y188220D01*
X324835D01*
Y184220D01*
X320835D01*
X330835Y194220D02*
Y198220D01*
X334835D01*
Y194220D01*
X330835D01*
X320835D02*
Y198220D01*
X324835D01*
Y194220D01*
X320835D01*
X330835Y204220D02*
Y208220D01*
X334835D01*
Y204220D01*
X330835D01*
X320835D02*
Y208220D01*
X324835D01*
Y204220D01*
X320835D01*
X330835Y214220D02*
Y218220D01*
X334835D01*
Y214220D01*
X330835D01*
X320835D02*
Y218220D01*
X324835D01*
Y214220D01*
X320835D01*
X330835Y224220D02*
Y228220D01*
X334835D01*
Y224220D01*
X330835D01*
X320835D02*
Y228220D01*
X324835D01*
Y224220D01*
X320835D01*
X330835Y234220D02*
Y238220D01*
X334835D01*
Y234220D01*
X330835D01*
X320835D02*
Y238220D01*
X324835D01*
Y234220D01*
X320835D01*
X285953Y217291D02*
Y221291D01*
X289953D01*
Y217291D01*
X285953D01*
X275953D02*
Y221291D01*
X279953D01*
Y217291D01*
X275953D01*
X259695Y296361D02*
Y300361D01*
X263695D01*
Y296361D01*
X259695D01*
X277017D02*
Y300361D01*
X281017D01*
Y296361D01*
X277017D01*
X262500Y264200D02*
X263500Y266200D01*
X262500Y268200D01*
X264500Y267200D01*
X266500Y268200D01*
X265500Y266200D01*
X266500Y264200D01*
X264500Y265200D01*
X262500Y264200D01*
X242094Y273590D02*
X243094Y275590D01*
X242094Y277590D01*
X244094Y276590D01*
X246094Y277590D01*
X245094Y275590D01*
X246094Y273590D01*
X244094Y274590D01*
X242094Y273590D01*
X338000Y298000D02*
X339000Y300000D01*
X338000Y302000D01*
X340000Y301000D01*
X342000Y302000D01*
X341000Y300000D01*
X342000Y298000D01*
X340000Y299000D01*
X338000Y298000D01*
X348000Y278000D02*
X349000Y280000D01*
X348000Y282000D01*
X350000Y281000D01*
X352000Y282000D01*
X351000Y280000D01*
X352000Y278000D01*
X350000Y279000D01*
X348000Y278000D01*
X338000Y258000D02*
X339000Y260000D01*
X338000Y262000D01*
X340000Y261000D01*
X342000Y262000D01*
X341000Y260000D01*
X342000Y258000D01*
X340000Y259000D01*
X338000Y258000D01*
X348000Y238000D02*
X349000Y240000D01*
X348000Y242000D01*
X350000Y241000D01*
X352000Y242000D01*
X351000Y240000D01*
X352000Y238000D01*
X350000Y239000D01*
X348000Y238000D01*
X338000Y218000D02*
X339000Y220000D01*
X338000Y222000D01*
X340000Y221000D01*
X342000Y222000D01*
X341000Y220000D01*
X342000Y218000D01*
X340000Y219000D01*
X338000Y218000D01*
X348000Y198000D02*
X349000Y200000D01*
X348000Y202000D01*
X350000Y201000D01*
X352000Y202000D01*
X351000Y200000D01*
X352000Y198000D01*
X350000Y199000D01*
X348000Y198000D01*
X338000Y178000D02*
X339000Y180000D01*
X338000Y182000D01*
X340000Y181000D01*
X342000Y182000D01*
X341000Y180000D01*
X342000Y178000D01*
X340000Y179000D01*
X338000Y178000D01*
X348000Y158000D02*
X349000Y160000D01*
X348000Y162000D01*
X350000Y161000D01*
X352000Y162000D01*
X351000Y160000D01*
X352000Y158000D01*
X350000Y159000D01*
X348000Y158000D01*
X338000Y138000D02*
X339000Y140000D01*
X338000Y142000D01*
X340000Y141000D01*
X342000Y142000D01*
X341000Y140000D01*
X342000Y138000D01*
X340000Y139000D01*
X338000Y138000D01*
X348000Y118000D02*
X349000Y120000D01*
X348000Y122000D01*
X350000Y121000D01*
X352000Y122000D01*
X351000Y120000D01*
X352000Y118000D01*
X350000Y119000D01*
X348000Y118000D01*
X338000Y98000D02*
X339000Y100000D01*
X338000Y102000D01*
X340000Y101000D01*
X342000Y102000D01*
X341000Y100000D01*
X342000Y98000D01*
X340000Y99000D01*
X338000Y98000D01*
X348000Y78000D02*
X349000Y80000D01*
X348000Y82000D01*
X350000Y81000D01*
X352000Y82000D01*
X351000Y80000D01*
X352000Y78000D01*
X350000Y79000D01*
X348000Y78000D01*
X338000Y58000D02*
X339000Y60000D01*
X338000Y62000D01*
X340000Y61000D01*
X342000Y62000D01*
X341000Y60000D01*
X342000Y58000D01*
X340000Y59000D01*
X338000Y58000D01*
X348000Y38000D02*
X349000Y40000D01*
X348000Y42000D01*
X350000Y41000D01*
X352000Y42000D01*
X351000Y40000D01*
X352000Y38000D01*
X350000Y39000D01*
X348000Y38000D01*
X338000Y18000D02*
X339000Y20000D01*
X338000Y22000D01*
X340000Y21000D01*
X342000Y22000D01*
X341000Y20000D01*
X342000Y18000D01*
X340000Y19000D01*
X338000Y18000D01*
X318000Y298000D02*
X319000Y300000D01*
X318000Y302000D01*
X320000Y301000D01*
X322000Y302000D01*
X321000Y300000D01*
X322000Y298000D01*
X320000Y299000D01*
X318000Y298000D01*
Y258000D02*
X319000Y260000D01*
X318000Y262000D01*
X320000Y261000D01*
X322000Y262000D01*
X321000Y260000D01*
X322000Y258000D01*
X320000Y259000D01*
X318000Y258000D01*
Y58000D02*
X319000Y60000D01*
X318000Y62000D01*
X320000Y61000D01*
X322000Y62000D01*
X321000Y60000D01*
X322000Y58000D01*
X320000Y59000D01*
X318000Y58000D01*
X328000Y38000D02*
X329000Y40000D01*
X328000Y42000D01*
X330000Y41000D01*
X332000Y42000D01*
X331000Y40000D01*
X332000Y38000D01*
X330000Y39000D01*
X328000Y38000D01*
X298000Y298000D02*
X299000Y300000D01*
X298000Y302000D01*
X300000Y301000D01*
X302000Y302000D01*
X301000Y300000D01*
X302000Y298000D01*
X300000Y299000D01*
X298000Y298000D01*
X308000Y278000D02*
X309000Y280000D01*
X308000Y282000D01*
X310000Y281000D01*
X312000Y282000D01*
X311000Y280000D01*
X312000Y278000D01*
X310000Y279000D01*
X308000Y278000D01*
X298000Y258000D02*
X299000Y260000D01*
X298000Y262000D01*
X300000Y261000D01*
X302000Y262000D01*
X301000Y260000D01*
X302000Y258000D01*
X300000Y259000D01*
X298000Y258000D01*
X308000Y238000D02*
X309000Y240000D01*
X308000Y242000D01*
X310000Y241000D01*
X312000Y242000D01*
X311000Y240000D01*
X312000Y238000D01*
X310000Y239000D01*
X308000Y238000D01*
X298000Y218000D02*
X299000Y220000D01*
X298000Y222000D01*
X300000Y221000D01*
X302000Y222000D01*
X301000Y220000D01*
X302000Y218000D01*
X300000Y219000D01*
X298000Y218000D01*
Y178000D02*
X299000Y180000D01*
X298000Y182000D01*
X300000Y181000D01*
X302000Y182000D01*
X301000Y180000D01*
X302000Y178000D01*
X300000Y179000D01*
X298000Y178000D01*
Y138000D02*
X299000Y140000D01*
X298000Y142000D01*
X300000Y141000D01*
X302000Y142000D01*
X301000Y140000D01*
X302000Y138000D01*
X300000Y139000D01*
X298000Y138000D01*
X308000Y118000D02*
X309000Y120000D01*
X308000Y122000D01*
X310000Y121000D01*
X312000Y122000D01*
X311000Y120000D01*
X312000Y118000D01*
X310000Y119000D01*
X308000Y118000D01*
X298000Y98000D02*
X299000Y100000D01*
X298000Y102000D01*
X300000Y101000D01*
X302000Y102000D01*
X301000Y100000D01*
X302000Y98000D01*
X300000Y99000D01*
X298000Y98000D01*
X308000Y78000D02*
X309000Y80000D01*
X308000Y82000D01*
X310000Y81000D01*
X312000Y82000D01*
X311000Y80000D01*
X312000Y78000D01*
X310000Y79000D01*
X308000Y78000D01*
X298000Y58000D02*
X299000Y60000D01*
X298000Y62000D01*
X300000Y61000D01*
X302000Y62000D01*
X301000Y60000D01*
X302000Y58000D01*
X300000Y59000D01*
X298000Y58000D01*
X308000Y38000D02*
X309000Y40000D01*
X308000Y42000D01*
X310000Y41000D01*
X312000Y42000D01*
X311000Y40000D01*
X312000Y38000D01*
X310000Y39000D01*
X308000Y38000D01*
X288000Y278000D02*
X289000Y280000D01*
X288000Y282000D01*
X290000Y281000D01*
X292000Y282000D01*
X291000Y280000D01*
X292000Y278000D01*
X290000Y279000D01*
X288000Y278000D01*
Y238000D02*
X289000Y240000D01*
X288000Y242000D01*
X290000Y241000D01*
X292000Y242000D01*
X291000Y240000D01*
X292000Y238000D01*
X290000Y239000D01*
X288000Y238000D01*
X278000Y178000D02*
X279000Y180000D01*
X278000Y182000D01*
X280000Y181000D01*
X282000Y182000D01*
X281000Y180000D01*
X282000Y178000D01*
X280000Y179000D01*
X278000Y178000D01*
Y138000D02*
X279000Y140000D01*
X278000Y142000D01*
X280000Y141000D01*
X282000Y142000D01*
X281000Y140000D01*
X282000Y138000D01*
X280000Y139000D01*
X278000Y138000D01*
X288000Y118000D02*
X289000Y120000D01*
X288000Y122000D01*
X290000Y121000D01*
X292000Y122000D01*
X291000Y120000D01*
X292000Y118000D01*
X290000Y119000D01*
X288000Y118000D01*
X278000Y98000D02*
X279000Y100000D01*
X278000Y102000D01*
X280000Y101000D01*
X282000Y102000D01*
X281000Y100000D01*
X282000Y98000D01*
X280000Y99000D01*
X278000Y98000D01*
X288000Y78000D02*
X289000Y80000D01*
X288000Y82000D01*
X290000Y81000D01*
X292000Y82000D01*
X291000Y80000D01*
X292000Y78000D01*
X290000Y79000D01*
X288000Y78000D01*
X278000Y58000D02*
X279000Y60000D01*
X278000Y62000D01*
X280000Y61000D01*
X282000Y62000D01*
X281000Y60000D01*
X282000Y58000D01*
X280000Y59000D01*
X278000Y58000D01*
X288000Y38000D02*
X289000Y40000D01*
X288000Y42000D01*
X290000Y41000D01*
X292000Y42000D01*
X291000Y40000D01*
X292000Y38000D01*
X290000Y39000D01*
X288000Y38000D01*
X258000Y138000D02*
X259000Y140000D01*
X258000Y142000D01*
X260000Y141000D01*
X262000Y142000D01*
X261000Y140000D01*
X262000Y138000D01*
X260000Y139000D01*
X258000Y138000D01*
X268000Y118000D02*
X269000Y120000D01*
X268000Y122000D01*
X270000Y121000D01*
X272000Y122000D01*
X271000Y120000D01*
X272000Y118000D01*
X270000Y119000D01*
X268000Y118000D01*
Y78000D02*
X269000Y80000D01*
X268000Y82000D01*
X270000Y81000D01*
X272000Y82000D01*
X271000Y80000D01*
X272000Y78000D01*
X270000Y79000D01*
X268000Y78000D01*
X258000Y58000D02*
X259000Y60000D01*
X258000Y62000D01*
X260000Y61000D01*
X262000Y62000D01*
X261000Y60000D01*
X262000Y58000D01*
X260000Y59000D01*
X258000Y58000D01*
X268000Y38000D02*
X269000Y40000D01*
X268000Y42000D01*
X270000Y41000D01*
X272000Y42000D01*
X271000Y40000D01*
X272000Y38000D01*
X270000Y39000D01*
X268000Y38000D01*
X238000Y298000D02*
X239000Y300000D01*
X238000Y302000D01*
X240000Y301000D01*
X242000Y302000D01*
X241000Y300000D01*
X242000Y298000D01*
X240000Y299000D01*
X238000Y298000D01*
X248000Y278000D02*
X249000Y280000D01*
X248000Y282000D01*
X250000Y281000D01*
X252000Y282000D01*
X251000Y280000D01*
X252000Y278000D01*
X250000Y279000D01*
X248000Y278000D01*
X238000Y258000D02*
X239000Y260000D01*
X238000Y262000D01*
X240000Y261000D01*
X242000Y262000D01*
X241000Y260000D01*
X242000Y258000D01*
X240000Y259000D01*
X238000Y258000D01*
Y218000D02*
X239000Y220000D01*
X238000Y222000D01*
X240000Y221000D01*
X242000Y222000D01*
X241000Y220000D01*
X242000Y218000D01*
X240000Y219000D01*
X238000Y218000D01*
Y138000D02*
X239000Y140000D01*
X238000Y142000D01*
X240000Y141000D01*
X242000Y142000D01*
X241000Y140000D01*
X242000Y138000D01*
X240000Y139000D01*
X238000Y138000D01*
Y98000D02*
X239000Y100000D01*
X238000Y102000D01*
X240000Y101000D01*
X242000Y102000D01*
X241000Y100000D01*
X242000Y98000D01*
X240000Y99000D01*
X238000Y98000D01*
X248000Y78000D02*
X249000Y80000D01*
X248000Y82000D01*
X250000Y81000D01*
X252000Y82000D01*
X251000Y80000D01*
X252000Y78000D01*
X250000Y79000D01*
X248000Y78000D01*
X238000Y58000D02*
X239000Y60000D01*
X238000Y62000D01*
X240000Y61000D01*
X242000Y62000D01*
X241000Y60000D01*
X242000Y58000D01*
X240000Y59000D01*
X238000Y58000D01*
X248000Y38000D02*
X249000Y40000D01*
X248000Y42000D01*
X250000Y41000D01*
X252000Y42000D01*
X251000Y40000D01*
X252000Y38000D01*
X250000Y39000D01*
X248000Y38000D01*
X238000Y18000D02*
X239000Y20000D01*
X238000Y22000D01*
X240000Y21000D01*
X242000Y22000D01*
X241000Y20000D01*
X242000Y18000D01*
X240000Y19000D01*
X238000Y18000D01*
X218000Y298000D02*
X219000Y300000D01*
X218000Y302000D01*
X220000Y301000D01*
X222000Y302000D01*
X221000Y300000D01*
X222000Y298000D01*
X220000Y299000D01*
X218000Y298000D01*
Y178000D02*
X219000Y180000D01*
X218000Y182000D01*
X220000Y181000D01*
X222000Y182000D01*
X221000Y180000D01*
X222000Y178000D01*
X220000Y179000D01*
X218000Y178000D01*
X228000Y118000D02*
X229000Y120000D01*
X228000Y122000D01*
X230000Y121000D01*
X232000Y122000D01*
X231000Y120000D01*
X232000Y118000D01*
X230000Y119000D01*
X228000Y118000D01*
X218000Y98000D02*
X219000Y100000D01*
X218000Y102000D01*
X220000Y101000D01*
X222000Y102000D01*
X221000Y100000D01*
X222000Y98000D01*
X220000Y99000D01*
X218000Y98000D01*
Y58000D02*
X219000Y60000D01*
X218000Y62000D01*
X220000Y61000D01*
X222000Y62000D01*
X221000Y60000D01*
X222000Y58000D01*
X220000Y59000D01*
X218000Y58000D01*
X228000Y38000D02*
X229000Y40000D01*
X228000Y42000D01*
X230000Y41000D01*
X232000Y42000D01*
X231000Y40000D01*
X232000Y38000D01*
X230000Y39000D01*
X228000Y38000D01*
X208000Y238000D02*
X209000Y240000D01*
X208000Y242000D01*
X210000Y241000D01*
X212000Y242000D01*
X211000Y240000D01*
X212000Y238000D01*
X210000Y239000D01*
X208000Y238000D01*
Y158000D02*
X209000Y160000D01*
X208000Y162000D01*
X210000Y161000D01*
X212000Y162000D01*
X211000Y160000D01*
X212000Y158000D01*
X210000Y159000D01*
X208000Y158000D01*
X198000Y138000D02*
X199000Y140000D01*
X198000Y142000D01*
X200000Y141000D01*
X202000Y142000D01*
X201000Y140000D01*
X202000Y138000D01*
X200000Y139000D01*
X198000Y138000D01*
X208000Y118000D02*
X209000Y120000D01*
X208000Y122000D01*
X210000Y121000D01*
X212000Y122000D01*
X211000Y120000D01*
X212000Y118000D01*
X210000Y119000D01*
X208000Y118000D01*
Y78000D02*
X209000Y80000D01*
X208000Y82000D01*
X210000Y81000D01*
X212000Y82000D01*
X211000Y80000D01*
X212000Y78000D01*
X210000Y79000D01*
X208000Y78000D01*
X198000Y58000D02*
X199000Y60000D01*
X198000Y62000D01*
X200000Y61000D01*
X202000Y62000D01*
X201000Y60000D01*
X202000Y58000D01*
X200000Y59000D01*
X198000Y58000D01*
Y18000D02*
X199000Y20000D01*
X198000Y22000D01*
X200000Y21000D01*
X202000Y22000D01*
X201000Y20000D01*
X202000Y18000D01*
X200000Y19000D01*
X198000Y18000D01*
X178000Y258000D02*
X179000Y260000D01*
X178000Y262000D01*
X180000Y261000D01*
X182000Y262000D01*
X181000Y260000D01*
X182000Y258000D01*
X180000Y259000D01*
X178000Y258000D01*
Y178000D02*
X179000Y180000D01*
X178000Y182000D01*
X180000Y181000D01*
X182000Y182000D01*
X181000Y180000D01*
X182000Y178000D01*
X180000Y179000D01*
X178000Y178000D01*
X188000Y118000D02*
X189000Y120000D01*
X188000Y122000D01*
X190000Y121000D01*
X192000Y122000D01*
X191000Y120000D01*
X192000Y118000D01*
X190000Y119000D01*
X188000Y118000D01*
X178000Y58000D02*
X179000Y60000D01*
X178000Y62000D01*
X180000Y61000D01*
X182000Y62000D01*
X181000Y60000D01*
X182000Y58000D01*
X180000Y59000D01*
X178000Y58000D01*
X158000Y258000D02*
X159000Y260000D01*
X158000Y262000D01*
X160000Y261000D01*
X162000Y262000D01*
X161000Y260000D01*
X162000Y258000D01*
X160000Y259000D01*
X158000Y258000D01*
Y218000D02*
X159000Y220000D01*
X158000Y222000D01*
X160000Y221000D01*
X162000Y222000D01*
X161000Y220000D01*
X162000Y218000D01*
X160000Y219000D01*
X158000Y218000D01*
X168000Y198000D02*
X169000Y200000D01*
X168000Y202000D01*
X170000Y201000D01*
X172000Y202000D01*
X171000Y200000D01*
X172000Y198000D01*
X170000Y199000D01*
X168000Y198000D01*
X158000Y178000D02*
X159000Y180000D01*
X158000Y182000D01*
X160000Y181000D01*
X162000Y182000D01*
X161000Y180000D01*
X162000Y178000D01*
X160000Y179000D01*
X158000Y178000D01*
Y138000D02*
X159000Y140000D01*
X158000Y142000D01*
X160000Y141000D01*
X162000Y142000D01*
X161000Y140000D01*
X162000Y138000D01*
X160000Y139000D01*
X158000Y138000D01*
X168000Y78000D02*
X169000Y80000D01*
X168000Y82000D01*
X170000Y81000D01*
X172000Y82000D01*
X171000Y80000D01*
X172000Y78000D01*
X170000Y79000D01*
X168000Y78000D01*
Y38000D02*
X169000Y40000D01*
X168000Y42000D01*
X170000Y41000D01*
X172000Y42000D01*
X171000Y40000D01*
X172000Y38000D01*
X170000Y39000D01*
X168000Y38000D01*
X158000Y18000D02*
X159000Y20000D01*
X158000Y22000D01*
X160000Y21000D01*
X162000Y22000D01*
X161000Y20000D01*
X162000Y18000D01*
X160000Y19000D01*
X158000Y18000D01*
X138000Y258000D02*
X139000Y260000D01*
X138000Y262000D01*
X140000Y261000D01*
X142000Y262000D01*
X141000Y260000D01*
X142000Y258000D01*
X140000Y259000D01*
X138000Y258000D01*
Y218000D02*
X139000Y220000D01*
X138000Y222000D01*
X140000Y221000D01*
X142000Y222000D01*
X141000Y220000D01*
X142000Y218000D01*
X140000Y219000D01*
X138000Y218000D01*
X148000Y198000D02*
X149000Y200000D01*
X148000Y202000D01*
X150000Y201000D01*
X152000Y202000D01*
X151000Y200000D01*
X152000Y198000D01*
X150000Y199000D01*
X148000Y198000D01*
X138000Y178000D02*
X139000Y180000D01*
X138000Y182000D01*
X140000Y181000D01*
X142000Y182000D01*
X141000Y180000D01*
X142000Y178000D01*
X140000Y179000D01*
X138000Y178000D01*
X148000Y158000D02*
X149000Y160000D01*
X148000Y162000D01*
X150000Y161000D01*
X152000Y162000D01*
X151000Y160000D01*
X152000Y158000D01*
X150000Y159000D01*
X148000Y158000D01*
X128000D02*
X129000Y160000D01*
X128000Y162000D01*
X130000Y161000D01*
X132000Y162000D01*
X131000Y160000D01*
X132000Y158000D01*
X130000Y159000D01*
X128000Y158000D01*
X98000Y58000D02*
X99000Y60000D01*
X98000Y62000D01*
X100000Y61000D01*
X102000Y62000D01*
X101000Y60000D01*
X102000Y58000D01*
X100000Y59000D01*
X98000Y58000D01*
X78000Y138000D02*
X79000Y140000D01*
X78000Y142000D01*
X80000Y141000D01*
X82000Y142000D01*
X81000Y140000D01*
X82000Y138000D01*
X80000Y139000D01*
X78000Y138000D01*
X88000Y78000D02*
X89000Y80000D01*
X88000Y82000D01*
X90000Y81000D01*
X92000Y82000D01*
X91000Y80000D01*
X92000Y78000D01*
X90000Y79000D01*
X88000Y78000D01*
X58000Y298000D02*
X59000Y300000D01*
X58000Y302000D01*
X60000Y301000D01*
X62000Y302000D01*
X61000Y300000D01*
X62000Y298000D01*
X60000Y299000D01*
X58000Y298000D01*
X68000Y158000D02*
X69000Y160000D01*
X68000Y162000D01*
X70000Y161000D01*
X72000Y162000D01*
X71000Y160000D01*
X72000Y158000D01*
X70000Y159000D01*
X68000Y158000D01*
X58000Y138000D02*
X59000Y140000D01*
X58000Y142000D01*
X60000Y141000D01*
X62000Y142000D01*
X61000Y140000D01*
X62000Y138000D01*
X60000Y139000D01*
X58000Y138000D01*
X68000Y118000D02*
X69000Y120000D01*
X68000Y122000D01*
X70000Y121000D01*
X72000Y122000D01*
X71000Y120000D01*
X72000Y118000D01*
X70000Y119000D01*
X68000Y118000D01*
X58000Y98000D02*
X59000Y100000D01*
X58000Y102000D01*
X60000Y101000D01*
X62000Y102000D01*
X61000Y100000D01*
X62000Y98000D01*
X60000Y99000D01*
X58000Y98000D01*
X68000Y78000D02*
X69000Y80000D01*
X68000Y82000D01*
X70000Y81000D01*
X72000Y82000D01*
X71000Y80000D01*
X72000Y78000D01*
X70000Y79000D01*
X68000Y78000D01*
X58000Y58000D02*
X59000Y60000D01*
X58000Y62000D01*
X60000Y61000D01*
X62000Y62000D01*
X61000Y60000D01*
X62000Y58000D01*
X60000Y59000D01*
X58000Y58000D01*
X68000Y38000D02*
X69000Y40000D01*
X68000Y42000D01*
X70000Y41000D01*
X72000Y42000D01*
X71000Y40000D01*
X72000Y38000D01*
X70000Y39000D01*
X68000Y38000D01*
X38000Y298000D02*
X39000Y300000D01*
X38000Y302000D01*
X40000Y301000D01*
X42000Y302000D01*
X41000Y300000D01*
X42000Y298000D01*
X40000Y299000D01*
X38000Y298000D01*
X48000Y278000D02*
X49000Y280000D01*
X48000Y282000D01*
X50000Y281000D01*
X52000Y282000D01*
X51000Y280000D01*
X52000Y278000D01*
X50000Y279000D01*
X48000Y278000D01*
X38000Y258000D02*
X39000Y260000D01*
X38000Y262000D01*
X40000Y261000D01*
X42000Y262000D01*
X41000Y260000D01*
X42000Y258000D01*
X40000Y259000D01*
X38000Y258000D01*
Y218000D02*
X39000Y220000D01*
X38000Y222000D01*
X40000Y221000D01*
X42000Y222000D01*
X41000Y220000D01*
X42000Y218000D01*
X40000Y219000D01*
X38000Y218000D01*
X48000Y158000D02*
X49000Y160000D01*
X48000Y162000D01*
X50000Y161000D01*
X52000Y162000D01*
X51000Y160000D01*
X52000Y158000D01*
X50000Y159000D01*
X48000Y158000D01*
Y118000D02*
X49000Y120000D01*
X48000Y122000D01*
X50000Y121000D01*
X52000Y122000D01*
X51000Y120000D01*
X52000Y118000D01*
X50000Y119000D01*
X48000Y118000D01*
X38000Y58000D02*
X39000Y60000D01*
X38000Y62000D01*
X40000Y61000D01*
X42000Y62000D01*
X41000Y60000D01*
X42000Y58000D01*
X40000Y59000D01*
X38000Y58000D01*
X18000Y298000D02*
X19000Y300000D01*
X18000Y302000D01*
X20000Y301000D01*
X22000Y302000D01*
X21000Y300000D01*
X22000Y298000D01*
X20000Y299000D01*
X18000Y298000D01*
X28000Y278000D02*
X29000Y280000D01*
X28000Y282000D01*
X30000Y281000D01*
X32000Y282000D01*
X31000Y280000D01*
X32000Y278000D01*
X30000Y279000D01*
X28000Y278000D01*
X18000Y258000D02*
X19000Y260000D01*
X18000Y262000D01*
X20000Y261000D01*
X22000Y262000D01*
X21000Y260000D01*
X22000Y258000D01*
X20000Y259000D01*
X18000Y258000D01*
Y218000D02*
X19000Y220000D01*
X18000Y222000D01*
X20000Y221000D01*
X22000Y222000D01*
X21000Y220000D01*
X22000Y218000D01*
X20000Y219000D01*
X18000Y218000D01*
X28000Y158000D02*
X29000Y160000D01*
X28000Y162000D01*
X30000Y161000D01*
X32000Y162000D01*
X31000Y160000D01*
X32000Y158000D01*
X30000Y159000D01*
X28000Y158000D01*
X18000Y138000D02*
X19000Y140000D01*
X18000Y142000D01*
X20000Y141000D01*
X22000Y142000D01*
X21000Y140000D01*
X22000Y138000D01*
X20000Y139000D01*
X18000Y138000D01*
X28000Y118000D02*
X29000Y120000D01*
X28000Y122000D01*
X30000Y121000D01*
X32000Y122000D01*
X31000Y120000D01*
X32000Y118000D01*
X30000Y119000D01*
X28000Y118000D01*
Y78000D02*
X29000Y80000D01*
X28000Y82000D01*
X30000Y81000D01*
X32000Y82000D01*
X31000Y80000D01*
X32000Y78000D01*
X30000Y79000D01*
X28000Y78000D01*
X18000Y58000D02*
X19000Y60000D01*
X18000Y62000D01*
X20000Y61000D01*
X22000Y62000D01*
X21000Y60000D01*
X22000Y58000D01*
X20000Y59000D01*
X18000Y58000D01*
X229100Y226500D02*
X230100Y228500D01*
X229100Y230500D01*
X231100Y229500D01*
X233100Y230500D01*
X232100Y228500D01*
X233100Y226500D01*
X231100Y227500D01*
X229100Y226500D01*
X187400Y58200D02*
X188400Y60200D01*
X187400Y62200D01*
X189400Y61200D01*
X191400Y62200D01*
X190400Y60200D01*
X191400Y58200D01*
X189400Y59200D01*
X187400Y58200D01*
X241900Y161700D02*
X242900Y163700D01*
X241900Y165700D01*
X243900Y164700D01*
X245900Y165700D01*
X244900Y163700D01*
X245900Y161700D01*
X243900Y162700D01*
X241900Y161700D01*
X223900Y197000D02*
X224900Y199000D01*
X223900Y201000D01*
X225900Y200000D01*
X227900Y201000D01*
X226900Y199000D01*
X227900Y197000D01*
X225900Y198000D01*
X223900Y197000D01*
X214200Y184900D02*
X215200Y186900D01*
X214200Y188900D01*
X216200Y187900D01*
X218200Y188900D01*
X217200Y186900D01*
X218200Y184900D01*
X216200Y185900D01*
X214200Y184900D01*
X218100Y194800D02*
X219100Y196800D01*
X218100Y198800D01*
X220100Y197800D01*
X222100Y198800D01*
X221100Y196800D01*
X222100Y194800D01*
X220100Y195800D01*
X218100Y194800D01*
X216950Y216850D02*
X217950Y218850D01*
X216950Y220850D01*
X218950Y219850D01*
X220950Y220850D01*
X219950Y218850D01*
X220950Y216850D01*
X218950Y217850D01*
X216950Y216850D01*
X219800Y230400D02*
X220800Y232400D01*
X219800Y234400D01*
X221800Y233400D01*
X223800Y234400D01*
X222800Y232400D01*
X223800Y230400D01*
X221800Y231400D01*
X219800Y230400D01*
X221800Y220900D02*
X222800Y222900D01*
X221800Y224900D01*
X223800Y223900D01*
X225800Y224900D01*
X224800Y222900D01*
X225800Y220900D01*
X223800Y221900D01*
X221800Y220900D01*
X224900Y211700D02*
X225900Y213700D01*
X224900Y215700D01*
X226900Y214700D01*
X228900Y215700D01*
X227900Y213700D01*
X228900Y211700D01*
X226900Y212700D01*
X224900Y211700D01*
X227550Y231500D02*
X228550Y233500D01*
X227550Y235500D01*
X229550Y234500D01*
X231550Y235500D01*
X230550Y233500D01*
X231550Y231500D01*
X229550Y232500D01*
X227550Y231500D01*
X230900Y218000D02*
X231900Y220000D01*
X230900Y222000D01*
X232900Y221000D01*
X234900Y222000D01*
X233900Y220000D01*
X234900Y218000D01*
X232900Y219000D01*
X230900Y218000D01*
X233600Y222100D02*
X234600Y224100D01*
X233600Y226100D01*
X235600Y225100D01*
X237600Y226100D01*
X236600Y224100D01*
X237600Y222100D01*
X235600Y223100D01*
X233600Y222100D01*
X197700Y163600D02*
X198700Y165600D01*
X197700Y167600D01*
X199700Y166600D01*
X201700Y167600D01*
X200700Y165600D01*
X201700Y163600D01*
X199700Y164600D01*
X197700Y163600D01*
X253800Y102900D02*
X254800Y104900D01*
X253800Y106900D01*
X255800Y105900D01*
X257800Y106900D01*
X256800Y104900D01*
X257800Y102900D01*
X255800Y103900D01*
X253800Y102900D01*
X247300Y190000D02*
X248300Y192000D01*
X247300Y194000D01*
X249300Y193000D01*
X251300Y194000D01*
X250300Y192000D01*
X251300Y190000D01*
X249300Y191000D01*
X247300Y190000D01*
X260600Y179900D02*
X261600Y181900D01*
X260600Y183900D01*
X262600Y182900D01*
X264600Y183900D01*
X263600Y181900D01*
X264600Y179900D01*
X262600Y180900D01*
X260600Y179900D01*
X267000Y265900D02*
X268000Y267900D01*
X267000Y269900D01*
X269000Y268900D01*
X271000Y269900D01*
X270000Y267900D01*
X271000Y265900D01*
X269000Y266900D01*
X267000Y265900D01*
X263000Y247600D02*
X264000Y249600D01*
X263000Y251600D01*
X265000Y250600D01*
X267000Y251600D01*
X266000Y249600D01*
X267000Y247600D01*
X265000Y248600D01*
X263000Y247600D01*
X252300Y248600D02*
X253300Y250600D01*
X252300Y252600D01*
X254300Y251600D01*
X256300Y252600D01*
X255300Y250600D01*
X256300Y248600D01*
X254300Y249600D01*
X252300Y248600D01*
X101700Y218800D02*
X102700Y220800D01*
X101700Y222800D01*
X103700Y221800D01*
X105700Y222800D01*
X104700Y220800D01*
X105700Y218800D01*
X103700Y219800D01*
X101700Y218800D01*
X60747Y194847D02*
X61747Y196847D01*
X60747Y198847D01*
X62747Y197847D01*
X64747Y198847D01*
X63747Y196847D01*
X64747Y194847D01*
X62747Y195847D01*
X60747Y194847D01*
X77400Y178900D02*
X78400Y180900D01*
X77400Y182900D01*
X79400Y181900D01*
X81400Y182900D01*
X80400Y180900D01*
X81400Y178900D01*
X79400Y179900D01*
X77400Y178900D01*
X65300Y202500D02*
X66300Y204500D01*
X65300Y206500D01*
X67300Y205500D01*
X69300Y206500D01*
X68300Y204500D01*
X69300Y202500D01*
X67300Y203500D01*
X65300Y202500D01*
X257700Y268800D02*
X258700Y270800D01*
X257700Y272800D01*
X259700Y271800D01*
X261700Y272800D01*
X260700Y270800D01*
X261700Y268800D01*
X259700Y269800D01*
X257700Y268800D01*
X253000Y271400D02*
X254000Y273400D01*
X253000Y275400D01*
X255000Y274400D01*
X257000Y275400D01*
X256000Y273400D01*
X257000Y271400D01*
X255000Y272400D01*
X253000Y271400D01*
D12*
X276385Y17400D02*
G03*
X276385Y17400I-2000J0D01*
G01*
X256700D02*
G03*
X256700Y17400I-2000J0D01*
G01*
X296070D02*
G03*
X296070Y17400I-2000J0D01*
G01*
X164583Y92878D02*
G03*
X164583Y92878I-2000J0D01*
G01*
X182300D02*
G03*
X182300Y92878I-2000J0D01*
G01*
X164583Y116500D02*
G03*
X164583Y116500I-2000J0D01*
G01*
X182300D02*
G03*
X182300Y116500I-2000J0D01*
G01*
X121300Y17400D02*
G03*
X121300Y17400I-2000J0D01*
G01*
X140985D02*
G03*
X140985Y17400I-2000J0D01*
G01*
X75700D02*
G03*
X75700Y17400I-2000J0D01*
G01*
X95385D02*
G03*
X95385Y17400I-2000J0D01*
G01*
X30300Y17700D02*
G03*
X30300Y17700I-2000J0D01*
G01*
X49985D02*
G03*
X49985Y17700I-2000J0D01*
G01*
M02*
