M48
;Layer_Color=9474304
;FILE_FORMAT=2:5
INCH,TZ
;TYPE=PLATED
T1F00S00C0.02500
T2F00S00C0.02800
T3F00S00C0.03543
T4F00S00C0.05906
%
T01
X72496Y101504
X80000Y100000
X123000Y121000
X146000Y87000
T02
X170630Y119370
T03
X8661Y9843
Y19843
Y29843
Y39843
Y49843
X200000Y47953
Y37953
Y27953
Y17953
Y7953
Y57953
Y67953
Y77953
Y93465
Y103465
Y113465
Y123465
Y133465
Y143465
Y153465
Y163465
Y173465
Y183465
X8661Y139370
Y129370
Y119370
Y109370
Y99370
Y89370
Y79370
Y59843
T04
X47244Y10630
Y30315
X57087Y20472
X66929Y30315
Y10630
X150787
Y30315
X170473
Y10630
X160630Y20472
M30
