%FSLAX25Y25*%
%MOIN*%
G70*
G01*
G75*
%ADD10O,0.01181X0.03937*%
%ADD11R,0.01181X0.03937*%
%ADD12R,0.05600X0.05200*%
%ADD13R,0.05200X0.05600*%
%ADD14C,0.01000*%
%ADD15C,0.02500*%
%ADD16C,0.05000*%
%ADD17R,0.05906X0.05906*%
%ADD18C,0.05906*%
%ADD19C,0.09843*%
%ADD20C,0.00787*%
%ADD21C,0.00800*%
D14*
X95648Y112759D02*
X90650D01*
X89650Y111760D01*
Y109760D01*
X90650Y108761D01*
X95648D01*
X89650Y106762D02*
Y104762D01*
Y105762D01*
X95648D01*
X94648Y106762D01*
X17717Y58268D02*
Y64266D01*
X20716D01*
X21715Y63266D01*
Y61267D01*
X20716Y60267D01*
X17717D01*
X27713Y64266D02*
X25714Y63266D01*
X23715Y61267D01*
Y59267D01*
X24714Y58268D01*
X26714D01*
X27713Y59267D01*
Y60267D01*
X26714Y61267D01*
X23715D01*
X147000Y129000D02*
X152998D01*
Y126001D01*
X151998Y125001D01*
X149999D01*
X148999Y126001D01*
Y129000D01*
Y127001D02*
X147000Y125001D01*
Y123002D02*
Y121003D01*
Y122002D01*
X152998D01*
X151998Y123002D01*
X147000Y115005D02*
X152998D01*
X149999Y118004D01*
Y114005D01*
X45620Y131119D02*
X51618D01*
Y128120D01*
X50618Y127120D01*
X48619D01*
X47619Y128120D01*
Y131119D01*
Y129119D02*
X45620Y127120D01*
X51618Y125120D02*
Y121122D01*
X50618D01*
X46620Y125120D01*
X45620D01*
X168124Y150150D02*
X174122D01*
Y147151D01*
X173122Y146151D01*
X171123D01*
X170123Y147151D01*
Y150150D01*
Y148151D02*
X168124Y146151D01*
Y144152D02*
Y142153D01*
Y143152D01*
X174122D01*
X173122Y144152D01*
Y139154D02*
X174122Y138154D01*
Y136154D01*
X173122Y135155D01*
X172123D01*
X171123Y136154D01*
Y137154D01*
Y136154D01*
X170123Y135155D01*
X169124D01*
X168124Y136154D01*
Y138154D01*
X169124Y139154D01*
X45620Y151785D02*
X51618D01*
Y148786D01*
X50618Y147786D01*
X48619D01*
X47619Y148786D01*
Y151785D01*
Y149786D02*
X45620Y147786D01*
X51618Y141788D02*
X50618Y143788D01*
X48619Y145787D01*
X46620D01*
X45620Y144788D01*
Y142788D01*
X46620Y141788D01*
X47619D01*
X48619Y142788D01*
Y145787D01*
X17323Y137008D02*
Y143006D01*
X20322D01*
X21321Y142006D01*
Y140007D01*
X20322Y139007D01*
X17323D01*
X27320Y143006D02*
X23321D01*
Y140007D01*
X25320Y141007D01*
X26320D01*
X27320Y140007D01*
Y138008D01*
X26320Y137008D01*
X24321D01*
X23321Y138008D01*
X168124Y171150D02*
X174122D01*
Y168151D01*
X173122Y167151D01*
X171123D01*
X170123Y168151D01*
Y171150D01*
Y169151D02*
X168124Y167151D01*
Y165152D02*
Y163153D01*
Y164152D01*
X174122D01*
X173122Y165152D01*
X168124Y156155D02*
Y160153D01*
X172123Y156155D01*
X173122D01*
X174122Y157155D01*
Y159154D01*
X173122Y160153D01*
X45620Y172452D02*
X51618D01*
Y169453D01*
X50618Y168453D01*
X48619D01*
X47619Y169453D01*
Y172452D01*
Y170452D02*
X45620Y168453D01*
X51618Y162455D02*
Y166454D01*
X48619D01*
X49619Y164454D01*
Y163455D01*
X48619Y162455D01*
X46620D01*
X45620Y163455D01*
Y165454D01*
X46620Y166454D01*
X168124Y192150D02*
X174122D01*
Y189151D01*
X173122Y188151D01*
X171123D01*
X170123Y189151D01*
Y192150D01*
Y190151D02*
X168124Y188151D01*
Y186152D02*
Y184152D01*
Y185152D01*
X174122D01*
X173122Y186152D01*
X168124Y181154D02*
Y179154D01*
Y180154D01*
X174122D01*
X173122Y181154D01*
X45620Y193119D02*
X51618D01*
Y190120D01*
X50618Y189120D01*
X48619D01*
X47619Y190120D01*
Y193119D01*
Y191119D02*
X45620Y189120D01*
Y184121D02*
X51618D01*
X48619Y187120D01*
Y183122D01*
X108352Y85650D02*
X113350D01*
X114350Y86650D01*
Y88649D01*
X113350Y89649D01*
X108352D01*
X114350Y95647D02*
Y91648D01*
X110351Y95647D01*
X109352D01*
X108352Y94647D01*
Y92648D01*
X109352Y91648D01*
X181898Y76504D02*
Y82502D01*
X184897D01*
X185896Y81502D01*
Y79503D01*
X184897Y78503D01*
X181898D01*
X190895Y76504D02*
Y82502D01*
X187896Y79503D01*
X191894D01*
X148850Y210250D02*
Y216248D01*
X151849D01*
X152849Y215248D01*
Y213249D01*
X151849Y212249D01*
X148850D01*
X150849D02*
X152849Y210250D01*
X154848D02*
X156847D01*
X155848D01*
Y216248D01*
X154848Y215248D01*
X159846D02*
X160846Y216248D01*
X162846D01*
X163845Y215248D01*
Y211250D01*
X162846Y210250D01*
X160846D01*
X159846Y211250D01*
Y215248D01*
X38000Y209000D02*
Y214998D01*
X40999D01*
X41999Y213998D01*
Y211999D01*
X40999Y210999D01*
X38000D01*
X39999D02*
X41999Y209000D01*
X43998Y213998D02*
X44998Y214998D01*
X46997D01*
X47997Y213998D01*
Y212999D01*
X46997Y211999D01*
X45997D01*
X46997D01*
X47997Y210999D01*
Y210000D01*
X46997Y209000D01*
X44998D01*
X43998Y210000D01*
X146480Y38622D02*
Y44620D01*
X149479D01*
X150479Y43621D01*
Y41622D01*
X149479Y40622D01*
X146480D01*
X156477Y38622D02*
X152478D01*
X156477Y42621D01*
Y43621D01*
X155477Y44620D01*
X153478D01*
X152478Y43621D01*
X127850Y210250D02*
Y216248D01*
X130849D01*
X131849Y215248D01*
Y213249D01*
X130849Y212249D01*
X127850D01*
X129849D02*
X131849Y210250D01*
X133848Y211250D02*
X134848Y210250D01*
X136847D01*
X137847Y211250D01*
Y215248D01*
X136847Y216248D01*
X134848D01*
X133848Y215248D01*
Y214249D01*
X134848Y213249D01*
X137847D01*
X59000Y209000D02*
Y214998D01*
X61999D01*
X62999Y213998D01*
Y211999D01*
X61999Y210999D01*
X59000D01*
X60999D02*
X62999Y209000D01*
X68997D02*
X64998D01*
X68997Y212999D01*
Y213998D01*
X67997Y214998D01*
X65998D01*
X64998Y213998D01*
X106850Y210250D02*
Y216248D01*
X109849D01*
X110849Y215248D01*
Y213249D01*
X109849Y212249D01*
X106850D01*
X108849D02*
X110849Y210250D01*
X112848Y215248D02*
X113848Y216248D01*
X115847D01*
X116847Y215248D01*
Y214249D01*
X115847Y213249D01*
X116847Y212249D01*
Y211250D01*
X115847Y210250D01*
X113848D01*
X112848Y211250D01*
Y212249D01*
X113848Y213249D01*
X112848Y214249D01*
Y215248D01*
X113848Y213249D02*
X115847D01*
X90150Y195750D02*
Y189752D01*
X87151D01*
X86151Y190752D01*
Y192751D01*
X87151Y193751D01*
X90150D01*
X88151D02*
X86151Y195750D01*
X84152D02*
X82153D01*
X83152D01*
Y189752D01*
X84152Y190752D01*
X181504Y182307D02*
Y188305D01*
X184503D01*
X185503Y187305D01*
Y185306D01*
X184503Y184306D01*
X181504D01*
X187502Y187305D02*
X188502Y188305D01*
X190501D01*
X191501Y187305D01*
Y186306D01*
X190501Y185306D01*
X189501D01*
X190501D01*
X191501Y184306D01*
Y183307D01*
X190501Y182307D01*
X188502D01*
X187502Y183307D01*
X42937Y38622D02*
Y44620D01*
X45936D01*
X46935Y43621D01*
Y41622D01*
X45936Y40622D01*
X42937D01*
X48935Y38622D02*
X50934D01*
X49934D01*
Y44620D01*
X48935Y43621D01*
D20*
X86279Y99845D02*
G03*
X86279Y98565I0J-640D01*
G01*
X117720Y98565D02*
G03*
X117720Y99844I0J640D01*
G01*
X167717Y20472D02*
G03*
X167717Y20472I-7087J0D01*
G01*
X64173D02*
G03*
X64173Y20472I-7087J0D01*
G01*
X65807Y106154D02*
X86279D01*
X65807Y92256D02*
Y106154D01*
Y92256D02*
X86279D01*
Y98565D01*
Y99844D02*
Y106154D01*
X117720Y92256D02*
Y98565D01*
Y99844D02*
Y106154D01*
X138193D01*
Y92256D02*
Y106154D01*
X117720Y92256D02*
X138193D01*
X3661Y4843D02*
X13661D01*
X3661Y64843D02*
X13661D01*
Y4843D02*
Y64843D01*
X3661Y4843D02*
Y64843D01*
X13661Y74370D02*
Y144370D01*
X3661D02*
X13661D01*
X3661Y74370D02*
Y144370D01*
Y74370D02*
X13661D01*
X195000Y2953D02*
X205000D01*
X195000D02*
Y82953D01*
X205000D01*
Y2953D02*
Y82953D01*
X156693Y32874D02*
X164567D01*
X173032Y16535D02*
Y24409D01*
X156693Y8071D02*
X164567D01*
X148228Y16535D02*
Y24409D01*
X205000Y88465D02*
Y180965D01*
Y188465D01*
X195000D02*
X205000D01*
X195000Y88465D02*
Y188465D01*
Y88465D02*
X205000D01*
X53150Y32874D02*
X61024D01*
X69488Y16535D02*
Y24409D01*
X53150Y8071D02*
X61024D01*
X44685Y16535D02*
Y24409D01*
D21*
X164774Y126100D02*
Y129700D01*
X156974Y125800D02*
Y129700D01*
X164774D01*
Y113800D02*
Y117400D01*
X156974Y113800D02*
Y117700D01*
Y113800D02*
X164774D01*
X42270Y128069D02*
Y131669D01*
X34470Y127769D02*
Y131669D01*
X42270D01*
Y115769D02*
Y119369D01*
X34470Y115769D02*
Y119669D01*
Y115769D02*
X42270D01*
X164774Y147100D02*
Y150700D01*
X156974Y146800D02*
Y150700D01*
X164774D01*
Y134800D02*
Y138400D01*
X156974Y134800D02*
Y138700D01*
Y134800D02*
X164774D01*
X42270Y148735D02*
Y152335D01*
X34470Y148435D02*
Y152335D01*
X42270D01*
Y136435D02*
Y140035D01*
X34470Y136435D02*
Y140335D01*
Y136435D02*
X42270D01*
X164774Y168100D02*
Y171700D01*
X156974Y167800D02*
Y171700D01*
X164774D01*
Y155800D02*
Y159400D01*
X156974Y155800D02*
Y159700D01*
Y155800D02*
X164774D01*
X42270Y169402D02*
Y173002D01*
X34470Y169102D02*
Y173002D01*
X42270D01*
Y157102D02*
Y160702D01*
X34470Y157102D02*
Y161002D01*
Y157102D02*
X42270D01*
X164774Y189100D02*
Y192700D01*
X156974Y188800D02*
Y192700D01*
X164774D01*
Y176800D02*
Y180400D01*
X156974Y176800D02*
Y180700D01*
Y176800D02*
X164774D01*
X42270Y190069D02*
Y193669D01*
X34470Y189769D02*
Y193669D01*
X42270D01*
Y177769D02*
Y181369D01*
X34470Y177769D02*
Y181669D01*
Y177769D02*
X42270D01*
X148300Y206900D02*
X151900D01*
X148300Y199100D02*
X152200D01*
X148300D02*
Y206900D01*
X160600D02*
X164200D01*
X160300Y199100D02*
X164200D01*
Y206900D01*
X47100Y199100D02*
X50700D01*
X46800Y206900D02*
X50700D01*
Y199100D02*
Y206900D01*
X34800Y199100D02*
X38400D01*
X34800Y206900D02*
X38700D01*
X34800Y199100D02*
Y206900D01*
X127300Y206900D02*
X130900D01*
X127300Y199100D02*
X131200D01*
X127300D02*
Y206900D01*
X139600D02*
X143200D01*
X139300Y199100D02*
X143200D01*
Y206900D01*
X67100Y199100D02*
X70700D01*
X66800Y206900D02*
X70700D01*
Y199100D02*
Y206900D01*
X54800Y199100D02*
X58400D01*
X54800Y206900D02*
X58700D01*
X54800Y199100D02*
Y206900D01*
X106300Y206900D02*
X109900D01*
X106300Y199100D02*
X110200D01*
X106300D02*
Y206900D01*
X118600D02*
X122200D01*
X118300Y199100D02*
X122200D01*
Y206900D01*
X87100Y199100D02*
X90700D01*
X86800Y206900D02*
X90700D01*
Y199100D02*
Y206900D01*
X74800Y199100D02*
X78400D01*
X74800Y206900D02*
X78700D01*
X74800Y199100D02*
Y206900D01*
M02*
