%FSLAX25Y25*%
%MOIN*%
G70*
G01*
G75*
G04 Layer_Color=8388736*
%ADD10O,0.01181X0.03937*%
%ADD11R,0.01181X0.03937*%
%ADD12R,0.05600X0.05200*%
%ADD13R,0.05200X0.05600*%
%ADD14C,0.01000*%
%ADD15C,0.02500*%
%ADD16C,0.05000*%
%ADD17R,0.05906X0.05906*%
%ADD18C,0.05906*%
%ADD19C,0.09843*%
%ADD20C,0.00787*%
%ADD21C,0.00800*%
%ADD22O,0.01981X0.04737*%
%ADD23R,0.01981X0.04737*%
%ADD24R,0.06400X0.06000*%
%ADD25R,0.06000X0.06400*%
%ADD26C,0.05800*%
%ADD27R,0.06706X0.06706*%
%ADD28C,0.06706*%
%ADD29C,0.10642*%
D22*
X67086Y87000D02*
D03*
X69646D02*
D03*
X72205D02*
D03*
X74764D02*
D03*
X77323D02*
D03*
X79882D02*
D03*
X82441D02*
D03*
X85000D02*
D03*
X67086Y111409D02*
D03*
X69646D02*
D03*
X72205D02*
D03*
X74764D02*
D03*
X77323D02*
D03*
X79882D02*
D03*
X82441D02*
D03*
X121559Y87000D02*
D03*
X124118D02*
D03*
X126677D02*
D03*
X129236D02*
D03*
X131795D02*
D03*
X134354D02*
D03*
X136914D02*
D03*
X119000Y111409D02*
D03*
X121559D02*
D03*
X124118D02*
D03*
X126677D02*
D03*
X129236D02*
D03*
X131795D02*
D03*
X134354D02*
D03*
X136914D02*
D03*
D23*
X85000D02*
D03*
X119000Y87000D02*
D03*
D24*
X160874Y117500D02*
D03*
Y126000D02*
D03*
X38370Y119469D02*
D03*
Y127969D02*
D03*
X160874Y138500D02*
D03*
Y147000D02*
D03*
X38370Y140135D02*
D03*
Y148635D02*
D03*
X160874Y159500D02*
D03*
Y168000D02*
D03*
X38370Y160802D02*
D03*
Y169302D02*
D03*
X160874Y180500D02*
D03*
Y189000D02*
D03*
X38370Y181469D02*
D03*
Y189969D02*
D03*
D25*
X160500Y203000D02*
D03*
X152000D02*
D03*
X38500Y203000D02*
D03*
X47000D02*
D03*
X139500Y203000D02*
D03*
X131000D02*
D03*
X58500Y203000D02*
D03*
X67000D02*
D03*
X118500Y203000D02*
D03*
X110000D02*
D03*
X78500Y203000D02*
D03*
X87000D02*
D03*
D26*
X80000Y100000D02*
D03*
X123000Y121000D02*
D03*
X146000Y87000D02*
D03*
X72496Y101504D02*
D03*
X170630Y119370D02*
D03*
D27*
X8661Y59843D02*
D03*
Y139370D02*
D03*
X200000Y77953D02*
D03*
Y183465D02*
D03*
D28*
X8661Y49843D02*
D03*
Y39843D02*
D03*
Y29843D02*
D03*
Y19843D02*
D03*
Y9843D02*
D03*
Y79370D02*
D03*
Y89370D02*
D03*
Y99370D02*
D03*
Y109370D02*
D03*
Y129370D02*
D03*
Y119370D02*
D03*
X200000Y67953D02*
D03*
Y57953D02*
D03*
Y47953D02*
D03*
Y37953D02*
D03*
Y27953D02*
D03*
Y17953D02*
D03*
Y7953D02*
D03*
Y163465D02*
D03*
Y93465D02*
D03*
Y103465D02*
D03*
Y113465D02*
D03*
Y123465D02*
D03*
Y133465D02*
D03*
Y143465D02*
D03*
Y153465D02*
D03*
Y173465D02*
D03*
D29*
X150787Y30315D02*
D03*
X170473D02*
D03*
Y10630D02*
D03*
X150787D02*
D03*
X160630Y20472D02*
D03*
X47244Y30315D02*
D03*
X66929D02*
D03*
Y10630D02*
D03*
X47244D02*
D03*
X57087Y20472D02*
D03*
M02*
