M48
;Layer_Color=9474304
;FILE_FORMAT=2:5
INCH,LZ
;TYPE=PLATED
T1F00S00C0.02500
T2F00S00C0.02800
T3F00S00C0.03543
T4F00S00C0.05906
%
T01
X0072496Y0101504
X008Y01
X0123Y0121
X0146Y0087
T02
X017063Y011937
T03
X0008661Y0009843
Y0019843
Y0029843
Y0039843
Y0049843
X02Y0047953
Y0037953
Y0027953
Y0017953
Y0007953
Y0057953
Y0067953
Y0077953
Y0093465
Y0103465
Y0113465
Y0123465
Y0133465
Y0143465
Y0153465
Y0163465
Y0173465
Y0183465
X0008661Y013937
Y012937
Y011937
Y010937
Y009937
Y008937
Y007937
Y0059843
T04
X0047244Y001063
X0057087Y0020472
X0047244Y0030315
X0066929
Y001063
X0150787
X016063Y0020472
X0170473Y001063
Y0030315
X0150787
M30
