%FSLAX25Y25*%
%MOIN*%
G70*
G01*
G75*
%ADD10R,0.05200X0.05600*%
%ADD11R,0.05600X0.05200*%
%ADD12O,0.01181X0.03937*%
%ADD13R,0.01181X0.03937*%
%ADD14C,0.01000*%
%ADD15C,0.02500*%
%ADD16C,0.09843*%
%ADD17R,0.05906X0.05906*%
%ADD18C,0.05906*%
%ADD19C,0.05000*%
D10*
X87000Y203000D02*
D03*
X78500D02*
D03*
X110000Y203000D02*
D03*
X118500D02*
D03*
X67000Y203000D02*
D03*
X58500D02*
D03*
X131000Y203000D02*
D03*
X139500D02*
D03*
X47000Y203000D02*
D03*
X38500D02*
D03*
X152000Y203000D02*
D03*
X160500D02*
D03*
D11*
X38370Y189969D02*
D03*
Y181469D02*
D03*
X160874Y189000D02*
D03*
Y180500D02*
D03*
X38370Y169302D02*
D03*
Y160802D02*
D03*
X160874Y168000D02*
D03*
Y159500D02*
D03*
X38370Y148635D02*
D03*
Y140135D02*
D03*
X160874Y147000D02*
D03*
Y138500D02*
D03*
X38370Y127969D02*
D03*
Y119469D02*
D03*
X160874Y126000D02*
D03*
Y117500D02*
D03*
D12*
X136914Y111409D02*
D03*
X134354D02*
D03*
X131795D02*
D03*
X129236D02*
D03*
X126677D02*
D03*
X124118D02*
D03*
X121559D02*
D03*
X119000D02*
D03*
X136914Y87000D02*
D03*
X134354D02*
D03*
X131795D02*
D03*
X129236D02*
D03*
X126677D02*
D03*
X124118D02*
D03*
X121559D02*
D03*
X82441Y111409D02*
D03*
X79882D02*
D03*
X77323D02*
D03*
X74764D02*
D03*
X72205D02*
D03*
X69646D02*
D03*
X67086D02*
D03*
X85000Y87000D02*
D03*
X82441D02*
D03*
X79882D02*
D03*
X77323D02*
D03*
X74764D02*
D03*
X72205D02*
D03*
X69646D02*
D03*
X67086D02*
D03*
D13*
X119000D02*
D03*
X85000Y111409D02*
D03*
D16*
X57087Y20472D02*
D03*
X47244Y10630D02*
D03*
X66929D02*
D03*
Y30315D02*
D03*
X47244D02*
D03*
X160630Y20472D02*
D03*
X150787Y10630D02*
D03*
X170473D02*
D03*
Y30315D02*
D03*
X150787D02*
D03*
D17*
X200000Y183465D02*
D03*
Y77953D02*
D03*
X8661Y139370D02*
D03*
Y59843D02*
D03*
D18*
X200000Y173465D02*
D03*
Y153465D02*
D03*
Y143465D02*
D03*
Y133465D02*
D03*
Y123465D02*
D03*
Y113465D02*
D03*
Y103465D02*
D03*
Y93465D02*
D03*
Y163465D02*
D03*
Y7953D02*
D03*
Y17953D02*
D03*
Y27953D02*
D03*
Y37953D02*
D03*
Y47953D02*
D03*
Y57953D02*
D03*
Y67953D02*
D03*
X8661Y119370D02*
D03*
Y129370D02*
D03*
Y109370D02*
D03*
Y99370D02*
D03*
Y89370D02*
D03*
Y79370D02*
D03*
Y9843D02*
D03*
Y19843D02*
D03*
Y29843D02*
D03*
Y39843D02*
D03*
Y49843D02*
D03*
D19*
X72496Y101504D02*
D03*
X146000Y87000D02*
D03*
X123000Y121000D02*
D03*
X80000Y100000D02*
D03*
M02*
