%FSLAX25Y25*%
%MOIN*%
G70*
G01*
G75*
G04 Layer_Color=8421504*
%ADD10O,0.01181X0.03937*%
%ADD11R,0.01181X0.03937*%
%ADD12R,0.05600X0.05200*%
%ADD13R,0.05200X0.05600*%
%ADD14C,0.01000*%
%ADD15C,0.02500*%
%ADD16C,0.05000*%
%ADD17R,0.05906X0.05906*%
%ADD18C,0.05906*%
%ADD19C,0.09843*%
%ADD20C,0.00787*%
%ADD21C,0.00800*%
D10*
X67086Y87000D02*
D03*
X69646D02*
D03*
X72205D02*
D03*
X74764D02*
D03*
X77323D02*
D03*
X79882D02*
D03*
X82441D02*
D03*
X85000D02*
D03*
X67086Y111409D02*
D03*
X69646D02*
D03*
X72205D02*
D03*
X74764D02*
D03*
X77323D02*
D03*
X79882D02*
D03*
X82441D02*
D03*
X121559Y87000D02*
D03*
X124118D02*
D03*
X126677D02*
D03*
X129236D02*
D03*
X131795D02*
D03*
X134354D02*
D03*
X136914D02*
D03*
X119000Y111409D02*
D03*
X121559D02*
D03*
X124118D02*
D03*
X126677D02*
D03*
X129236D02*
D03*
X131795D02*
D03*
X134354D02*
D03*
X136914D02*
D03*
D11*
X85000D02*
D03*
X119000Y87000D02*
D03*
D12*
X160874Y117500D02*
D03*
Y126000D02*
D03*
X38370Y119469D02*
D03*
Y127969D02*
D03*
X160874Y138500D02*
D03*
Y147000D02*
D03*
X38370Y140135D02*
D03*
Y148635D02*
D03*
X160874Y159500D02*
D03*
Y168000D02*
D03*
X38370Y160802D02*
D03*
Y169302D02*
D03*
X160874Y180500D02*
D03*
Y189000D02*
D03*
X38370Y181469D02*
D03*
Y189969D02*
D03*
D13*
X160500Y203000D02*
D03*
X152000D02*
D03*
X38500Y203000D02*
D03*
X47000D02*
D03*
X139500Y203000D02*
D03*
X131000D02*
D03*
X58500Y203000D02*
D03*
X67000D02*
D03*
X118500Y203000D02*
D03*
X110000D02*
D03*
X78500Y203000D02*
D03*
X87000D02*
D03*
M02*
