%FSLAX25Y25*%
%MOIN*%
G70*
G01*
G75*
G04 Layer_Physical_Order=2*
G04 Layer_Color=16711680*
%ADD10R,0.05200X0.05600*%
%ADD11R,0.05600X0.05200*%
%ADD12O,0.01181X0.03937*%
%ADD13R,0.01181X0.03937*%
%ADD14C,0.01000*%
%ADD15C,0.02500*%
%ADD16C,0.09843*%
%ADD17R,0.05906X0.05906*%
%ADD18C,0.05906*%
%ADD19C,0.05000*%
G36*
X205000Y3000D02*
X3000D01*
Y265000D01*
X205000D01*
Y3000D01*
D02*
G37*
%LPC*%
G36*
X66429Y29815D02*
X61028D01*
X61094Y29154D01*
X61432Y28038D01*
X61982Y27009D01*
X62722Y26108D01*
X63624Y25368D01*
X64652Y24818D01*
X65768Y24479D01*
X66429Y24414D01*
Y29815D01*
D02*
G37*
G36*
X53145D02*
X47744D01*
Y24414D01*
X48405Y24479D01*
X49521Y24818D01*
X50550Y25368D01*
X51451Y26108D01*
X52191Y27009D01*
X52741Y28038D01*
X53080Y29154D01*
X53145Y29815D01*
D02*
G37*
G36*
X150287D02*
X144887D01*
X144952Y29154D01*
X145290Y28038D01*
X145840Y27009D01*
X146580Y26108D01*
X147482Y25368D01*
X148511Y24818D01*
X149627Y24479D01*
X150287Y24414D01*
Y29815D01*
D02*
G37*
G36*
X72830D02*
X67429D01*
Y24414D01*
X68090Y24479D01*
X69206Y24818D01*
X70235Y25368D01*
X71136Y26108D01*
X71876Y27009D01*
X72426Y28038D01*
X72765Y29154D01*
X72830Y29815D01*
D02*
G37*
G36*
X46744D02*
X41343D01*
X41408Y29154D01*
X41747Y28038D01*
X42297Y27009D01*
X43037Y26108D01*
X43938Y25368D01*
X44967Y24818D01*
X46083Y24479D01*
X46744Y24414D01*
Y29815D01*
D02*
G37*
G36*
X146000Y90530D02*
X145086Y90410D01*
X144235Y90057D01*
X143504Y89496D01*
X142943Y88765D01*
X142590Y87914D01*
X142470Y87000D01*
X142590Y86086D01*
X142943Y85235D01*
X143504Y84504D01*
X144235Y83943D01*
X145086Y83590D01*
X146000Y83470D01*
X146914Y83590D01*
X147765Y83943D01*
X148496Y84504D01*
X149057Y85235D01*
X149155Y85471D01*
X152366D01*
X159101Y78737D01*
Y26196D01*
X158353Y25969D01*
X157324Y25420D01*
X156423Y24680D01*
X155683Y23778D01*
X155133Y22749D01*
X154794Y21633D01*
X154680Y20472D01*
X154794Y19312D01*
X155133Y18195D01*
X155683Y17167D01*
X156423Y16265D01*
X157324Y15525D01*
X158353Y14975D01*
X159469Y14637D01*
X160630Y14523D01*
X161791Y14637D01*
X162907Y14975D01*
X163936Y15525D01*
X164837Y16265D01*
X165577Y17167D01*
X166127Y18195D01*
X166466Y19312D01*
X166580Y20472D01*
X166466Y21633D01*
X166127Y22749D01*
X165577Y23778D01*
X164837Y24680D01*
X163936Y25420D01*
X162907Y25969D01*
X162159Y26196D01*
Y79370D01*
X162043Y79955D01*
X161711Y80451D01*
X154081Y88081D01*
X153585Y88413D01*
X153000Y88529D01*
X149155D01*
X149057Y88765D01*
X148496Y89496D01*
X147765Y90057D01*
X146914Y90410D01*
X146000Y90530D01*
D02*
G37*
G36*
X72496Y105034D02*
X71583Y104914D01*
X70731Y104561D01*
X70000Y104000D01*
X69439Y103269D01*
X69086Y102418D01*
X68966Y101504D01*
X69086Y100590D01*
X69439Y99739D01*
X70000Y99007D01*
X70731Y98447D01*
X70967Y98349D01*
Y65130D01*
X56005Y50168D01*
X55674Y49672D01*
X55557Y49087D01*
Y26196D01*
X54810Y25969D01*
X53781Y25420D01*
X52879Y24680D01*
X52139Y23778D01*
X51590Y22749D01*
X51251Y21633D01*
X51137Y20472D01*
X51251Y19312D01*
X51590Y18195D01*
X52139Y17167D01*
X52879Y16265D01*
X53781Y15525D01*
X54810Y14975D01*
X55926Y14637D01*
X57087Y14523D01*
X58247Y14637D01*
X59364Y14975D01*
X60392Y15525D01*
X61294Y16265D01*
X62034Y17167D01*
X62584Y18195D01*
X62922Y19312D01*
X63037Y20472D01*
X62922Y21633D01*
X62584Y22749D01*
X62034Y23778D01*
X61294Y24680D01*
X60392Y25420D01*
X59364Y25969D01*
X58616Y26196D01*
Y48453D01*
X73578Y63415D01*
X73909Y63911D01*
X74026Y64496D01*
X74026Y64496D01*
X74026Y64496D01*
Y64496D01*
Y98349D01*
X74261Y98447D01*
X74993Y99007D01*
X75554Y99739D01*
X75906Y100590D01*
X76026Y101504D01*
X75906Y102418D01*
X75554Y103269D01*
X74993Y104000D01*
X74261Y104561D01*
X73410Y104914D01*
X72496Y105034D01*
D02*
G37*
G36*
X200000Y31940D02*
X198968Y31804D01*
X198007Y31405D01*
X197181Y30772D01*
X196547Y29946D01*
X196149Y28985D01*
X196013Y27953D01*
X196149Y26921D01*
X196547Y25959D01*
X197181Y25134D01*
X198007Y24500D01*
X198968Y24102D01*
X200000Y23966D01*
X201032Y24102D01*
X201993Y24500D01*
X202819Y25134D01*
X203453Y25959D01*
X203851Y26921D01*
X203987Y27953D01*
X203851Y28985D01*
X203453Y29946D01*
X202819Y30772D01*
X201993Y31405D01*
X201032Y31804D01*
X200000Y31940D01*
D02*
G37*
G36*
X8661Y23830D02*
X7630Y23694D01*
X6668Y23295D01*
X5842Y22662D01*
X5209Y21836D01*
X4810Y20875D01*
X4674Y19843D01*
X4810Y18811D01*
X5209Y17849D01*
X5842Y17023D01*
X6668Y16390D01*
X7630Y15992D01*
X8661Y15856D01*
X9693Y15992D01*
X10655Y16390D01*
X11480Y17023D01*
X12114Y17849D01*
X12512Y18811D01*
X12648Y19843D01*
X12512Y20875D01*
X12114Y21836D01*
X11480Y22662D01*
X10655Y23295D01*
X9693Y23694D01*
X8661Y23830D01*
D02*
G37*
G36*
X66429Y36216D02*
X65768Y36151D01*
X64652Y35812D01*
X63624Y35262D01*
X62722Y34522D01*
X61982Y33621D01*
X61432Y32592D01*
X61094Y31476D01*
X61028Y30815D01*
X66429D01*
Y36216D01*
D02*
G37*
G36*
X47744D02*
Y30815D01*
X53145D01*
X53080Y31476D01*
X52741Y32592D01*
X52191Y33621D01*
X51451Y34522D01*
X50550Y35262D01*
X49521Y35812D01*
X48405Y36151D01*
X47744Y36216D01*
D02*
G37*
G36*
X150287D02*
X149627Y36151D01*
X148511Y35812D01*
X147482Y35262D01*
X146580Y34522D01*
X145840Y33621D01*
X145290Y32592D01*
X144952Y31476D01*
X144887Y30815D01*
X150287D01*
Y36216D01*
D02*
G37*
G36*
X67429D02*
Y30815D01*
X72830D01*
X72765Y31476D01*
X72426Y32592D01*
X71876Y33621D01*
X71136Y34522D01*
X70235Y35262D01*
X69206Y35812D01*
X68090Y36151D01*
X67429Y36216D01*
D02*
G37*
G36*
X46744D02*
X46083Y36151D01*
X44967Y35812D01*
X43938Y35262D01*
X43037Y34522D01*
X42297Y33621D01*
X41747Y32592D01*
X41408Y31476D01*
X41343Y30815D01*
X46744D01*
Y36216D01*
D02*
G37*
G36*
X169973Y29815D02*
X164572D01*
X164637Y29154D01*
X164976Y28038D01*
X165525Y27009D01*
X166265Y26108D01*
X167167Y25368D01*
X168196Y24818D01*
X169312Y24479D01*
X169973Y24414D01*
Y29815D01*
D02*
G37*
G36*
X156688D02*
X151287D01*
Y24414D01*
X151948Y24479D01*
X153064Y24818D01*
X154093Y25368D01*
X154995Y26108D01*
X155735Y27009D01*
X156284Y28038D01*
X156623Y29154D01*
X156688Y29815D01*
D02*
G37*
G36*
X8661Y33830D02*
X7630Y33694D01*
X6668Y33295D01*
X5842Y32662D01*
X5209Y31836D01*
X4810Y30874D01*
X4674Y29843D01*
X4810Y28811D01*
X5209Y27849D01*
X5842Y27024D01*
X6668Y26390D01*
X7630Y25992D01*
X8661Y25856D01*
X9693Y25992D01*
X10655Y26390D01*
X11480Y27024D01*
X12114Y27849D01*
X12512Y28811D01*
X12648Y29843D01*
X12512Y30874D01*
X12114Y31836D01*
X11480Y32662D01*
X10655Y33295D01*
X9693Y33694D01*
X8661Y33830D01*
D02*
G37*
G36*
X176373Y29815D02*
X170973D01*
Y24414D01*
X171633Y24479D01*
X172749Y24818D01*
X173778Y25368D01*
X174680Y26108D01*
X175420Y27009D01*
X175970Y28038D01*
X176308Y29154D01*
X176373Y29815D01*
D02*
G37*
G36*
X200000Y21940D02*
X198968Y21804D01*
X198007Y21406D01*
X197181Y20772D01*
X196547Y19946D01*
X196149Y18985D01*
X196013Y17953D01*
X196149Y16921D01*
X196547Y15959D01*
X197181Y15134D01*
X198007Y14500D01*
X198968Y14102D01*
X200000Y13966D01*
X201032Y14102D01*
X201993Y14500D01*
X202819Y15134D01*
X203453Y15959D01*
X203851Y16921D01*
X203987Y17953D01*
X203851Y18985D01*
X203453Y19946D01*
X202819Y20772D01*
X201993Y21406D01*
X201032Y21804D01*
X200000Y21940D01*
D02*
G37*
G36*
X156688Y10130D02*
X151287D01*
Y4729D01*
X151948Y4794D01*
X153064Y5133D01*
X154093Y5683D01*
X154995Y6423D01*
X155735Y7324D01*
X156284Y8353D01*
X156623Y9469D01*
X156688Y10130D01*
D02*
G37*
G36*
X150287D02*
X144887D01*
X144952Y9469D01*
X145290Y8353D01*
X145840Y7324D01*
X146580Y6423D01*
X147482Y5683D01*
X148511Y5133D01*
X149627Y4794D01*
X150287Y4729D01*
Y10130D01*
D02*
G37*
G36*
X176373D02*
X170973D01*
Y4729D01*
X171633Y4794D01*
X172749Y5133D01*
X173778Y5683D01*
X174680Y6423D01*
X175420Y7324D01*
X175970Y8353D01*
X176308Y9469D01*
X176373Y10130D01*
D02*
G37*
G36*
X169973D02*
X164572D01*
X164637Y9469D01*
X164976Y8353D01*
X165525Y7324D01*
X166265Y6423D01*
X167167Y5683D01*
X168196Y5133D01*
X169312Y4794D01*
X169973Y4729D01*
Y10130D01*
D02*
G37*
G36*
X72830D02*
X67429D01*
Y4729D01*
X68090Y4794D01*
X69206Y5133D01*
X70235Y5683D01*
X71136Y6423D01*
X71876Y7324D01*
X72426Y8353D01*
X72765Y9469D01*
X72830Y10130D01*
D02*
G37*
G36*
X46744D02*
X41343D01*
X41408Y9469D01*
X41747Y8353D01*
X42297Y7324D01*
X43037Y6423D01*
X43938Y5683D01*
X44967Y5133D01*
X46083Y4794D01*
X46744Y4729D01*
Y10130D01*
D02*
G37*
G36*
X200000Y11940D02*
X198968Y11804D01*
X198007Y11406D01*
X197181Y10772D01*
X196547Y9946D01*
X196149Y8985D01*
X196013Y7953D01*
X196149Y6921D01*
X196547Y5959D01*
X197181Y5134D01*
X198007Y4500D01*
X198968Y4102D01*
X200000Y3966D01*
X201032Y4102D01*
X201993Y4500D01*
X202819Y5134D01*
X203453Y5959D01*
X203851Y6921D01*
X203987Y7953D01*
X203851Y8985D01*
X203453Y9946D01*
X202819Y10772D01*
X201993Y11406D01*
X201032Y11804D01*
X200000Y11940D01*
D02*
G37*
G36*
X66429Y10130D02*
X61028D01*
X61094Y9469D01*
X61432Y8353D01*
X61982Y7324D01*
X62722Y6423D01*
X63624Y5683D01*
X64652Y5133D01*
X65768Y4794D01*
X66429Y4729D01*
Y10130D01*
D02*
G37*
G36*
X53145D02*
X47744D01*
Y4729D01*
X48405Y4794D01*
X49521Y5133D01*
X50550Y5683D01*
X51451Y6423D01*
X52191Y7324D01*
X52741Y8353D01*
X53080Y9469D01*
X53145Y10130D01*
D02*
G37*
G36*
X151287Y16531D02*
Y11130D01*
X156688D01*
X156623Y11791D01*
X156284Y12907D01*
X155735Y13935D01*
X154995Y14837D01*
X154093Y15577D01*
X153064Y16127D01*
X151948Y16465D01*
X151287Y16531D01*
D02*
G37*
G36*
X150287D02*
X149627Y16465D01*
X148511Y16127D01*
X147482Y15577D01*
X146580Y14837D01*
X145840Y13935D01*
X145290Y12907D01*
X144952Y11791D01*
X144887Y11130D01*
X150287D01*
Y16531D01*
D02*
G37*
G36*
X170973D02*
Y11130D01*
X176373D01*
X176308Y11791D01*
X175970Y12907D01*
X175420Y13935D01*
X174680Y14837D01*
X173778Y15577D01*
X172749Y16127D01*
X171633Y16465D01*
X170973Y16531D01*
D02*
G37*
G36*
X169973D02*
X169312Y16465D01*
X168196Y16127D01*
X167167Y15577D01*
X166265Y14837D01*
X165525Y13935D01*
X164976Y12907D01*
X164637Y11791D01*
X164572Y11130D01*
X169973D01*
Y16531D01*
D02*
G37*
G36*
X67429D02*
Y11130D01*
X72830D01*
X72765Y11791D01*
X72426Y12907D01*
X71876Y13935D01*
X71136Y14837D01*
X70235Y15577D01*
X69206Y16127D01*
X68090Y16465D01*
X67429Y16531D01*
D02*
G37*
G36*
X46744D02*
X46083Y16465D01*
X44967Y16127D01*
X43938Y15577D01*
X43037Y14837D01*
X42297Y13935D01*
X41747Y12907D01*
X41408Y11791D01*
X41343Y11130D01*
X46744D01*
Y16531D01*
D02*
G37*
G36*
X8661Y13829D02*
X7630Y13694D01*
X6668Y13295D01*
X5842Y12662D01*
X5209Y11836D01*
X4810Y10875D01*
X4674Y9843D01*
X4810Y8811D01*
X5209Y7849D01*
X5842Y7023D01*
X6668Y6390D01*
X7630Y5992D01*
X8661Y5856D01*
X9693Y5992D01*
X10655Y6390D01*
X11480Y7023D01*
X12114Y7849D01*
X12512Y8811D01*
X12648Y9843D01*
X12512Y10875D01*
X12114Y11836D01*
X11480Y12662D01*
X10655Y13295D01*
X9693Y13694D01*
X8661Y13829D01*
D02*
G37*
G36*
X66429Y16531D02*
X65768Y16465D01*
X64652Y16127D01*
X63624Y15577D01*
X62722Y14837D01*
X61982Y13935D01*
X61432Y12907D01*
X61094Y11791D01*
X61028Y11130D01*
X66429D01*
Y16531D01*
D02*
G37*
G36*
X47744D02*
Y11130D01*
X53145D01*
X53080Y11791D01*
X52741Y12907D01*
X52191Y13935D01*
X51451Y14837D01*
X50550Y15577D01*
X49521Y16127D01*
X48405Y16465D01*
X47744Y16531D01*
D02*
G37*
G36*
X123000Y124530D02*
X122086Y124410D01*
X121235Y124057D01*
X120504Y123496D01*
X120349Y123294D01*
X86000D01*
X85122Y123119D01*
X84378Y122622D01*
X78378Y116622D01*
X77881Y115878D01*
X77706Y115000D01*
Y102651D01*
X77504Y102496D01*
X76943Y101765D01*
X76590Y100914D01*
X76470Y100000D01*
X76590Y99086D01*
X76943Y98235D01*
X77504Y97504D01*
X78235Y96943D01*
X79086Y96590D01*
X80000Y96470D01*
X80914Y96590D01*
X81765Y96943D01*
X82496Y97504D01*
X83057Y98235D01*
X83410Y99086D01*
X83530Y100000D01*
X83410Y100914D01*
X83057Y101765D01*
X82496Y102496D01*
X82294Y102651D01*
Y114050D01*
X86950Y118706D01*
X120349D01*
X120504Y118504D01*
X121235Y117943D01*
X122086Y117590D01*
X123000Y117470D01*
X123914Y117590D01*
X124765Y117943D01*
X125496Y118504D01*
X126057Y119235D01*
X126410Y120086D01*
X126530Y121000D01*
X126410Y121914D01*
X126057Y122765D01*
X125496Y123496D01*
X124765Y124057D01*
X123914Y124410D01*
X123000Y124530D01*
D02*
G37*
G36*
X160000Y132294D02*
X49000D01*
X48122Y132120D01*
X47378Y131622D01*
X37420Y121664D01*
X11883D01*
X11480Y122189D01*
X10655Y122823D01*
X9693Y123221D01*
X8661Y123357D01*
X7630Y123221D01*
X6668Y122823D01*
X5842Y122189D01*
X5209Y121363D01*
X4810Y120402D01*
X4674Y119370D01*
X4810Y118338D01*
X5209Y117377D01*
X5842Y116551D01*
X6668Y115917D01*
X7630Y115519D01*
X8661Y115383D01*
X9693Y115519D01*
X10655Y115917D01*
X11480Y116551D01*
X11883Y117076D01*
X38370D01*
X39248Y117251D01*
X39992Y117748D01*
X39992Y117748D01*
X39992Y117748D01*
X49950Y127706D01*
X159050D01*
X167133Y119623D01*
X167100Y119370D01*
X167220Y118456D01*
X167573Y117605D01*
X168134Y116874D01*
X168865Y116313D01*
X169716Y115960D01*
X170630Y115840D01*
X171544Y115960D01*
X172395Y116313D01*
X173126Y116874D01*
X173687Y117605D01*
X174040Y118456D01*
X174160Y119370D01*
X174040Y120284D01*
X173687Y121135D01*
X173126Y121866D01*
X172395Y122427D01*
X171544Y122780D01*
X170630Y122900D01*
X170377Y122867D01*
X161622Y131622D01*
X160878Y132120D01*
X160000Y132294D01*
D02*
G37*
G36*
X8661Y133357D02*
X7630Y133221D01*
X6668Y132823D01*
X5842Y132189D01*
X5209Y131363D01*
X4810Y130402D01*
X4674Y129370D01*
X4810Y128338D01*
X5209Y127377D01*
X5842Y126551D01*
X6668Y125917D01*
X7630Y125519D01*
X8661Y125383D01*
X9693Y125519D01*
X10655Y125917D01*
X11480Y126551D01*
X12114Y127377D01*
X12512Y128338D01*
X12648Y129370D01*
X12512Y130402D01*
X12114Y131363D01*
X11480Y132189D01*
X10655Y132823D01*
X9693Y133221D01*
X8661Y133357D01*
D02*
G37*
G36*
X200000Y127452D02*
X198968Y127316D01*
X198007Y126917D01*
X197181Y126284D01*
X196547Y125458D01*
X196149Y124496D01*
X196013Y123465D01*
X196149Y122433D01*
X196547Y121471D01*
X197181Y120645D01*
X198007Y120012D01*
X198968Y119614D01*
X200000Y119478D01*
X201032Y119614D01*
X201993Y120012D01*
X202819Y120645D01*
X203453Y121471D01*
X203851Y122433D01*
X203987Y123465D01*
X203851Y124496D01*
X203453Y125458D01*
X202819Y126284D01*
X201993Y126917D01*
X201032Y127316D01*
X200000Y127452D01*
D02*
G37*
G36*
Y117452D02*
X198968Y117316D01*
X198007Y116917D01*
X197181Y116284D01*
X196547Y115458D01*
X196149Y114497D01*
X196013Y113465D01*
X196149Y112433D01*
X196547Y111471D01*
X197181Y110645D01*
X198007Y110012D01*
X198968Y109614D01*
X200000Y109478D01*
X201032Y109614D01*
X201993Y110012D01*
X202819Y110645D01*
X203453Y111471D01*
X203851Y112433D01*
X203987Y113465D01*
X203851Y114497D01*
X203453Y115458D01*
X202819Y116284D01*
X201993Y116917D01*
X201032Y117316D01*
X200000Y117452D01*
D02*
G37*
G36*
X8161Y103291D02*
X7630Y103221D01*
X6668Y102823D01*
X5842Y102189D01*
X5209Y101363D01*
X4810Y100402D01*
X4740Y99870D01*
X8161D01*
Y103291D01*
D02*
G37*
G36*
X200000Y107451D02*
X198968Y107316D01*
X198007Y106917D01*
X197181Y106284D01*
X196547Y105458D01*
X196149Y104497D01*
X196013Y103465D01*
X196149Y102433D01*
X196547Y101471D01*
X197181Y100645D01*
X198007Y100012D01*
X198968Y99614D01*
X200000Y99478D01*
X201032Y99614D01*
X201993Y100012D01*
X202819Y100645D01*
X203453Y101471D01*
X203851Y102433D01*
X203987Y103465D01*
X203851Y104497D01*
X203453Y105458D01*
X202819Y106284D01*
X201993Y106917D01*
X201032Y107316D01*
X200000Y107451D01*
D02*
G37*
G36*
X8661Y113357D02*
X7630Y113221D01*
X6668Y112823D01*
X5842Y112189D01*
X5209Y111363D01*
X4810Y110402D01*
X4674Y109370D01*
X4810Y108338D01*
X5209Y107377D01*
X5842Y106551D01*
X6668Y105917D01*
X7630Y105519D01*
X8661Y105383D01*
X9693Y105519D01*
X10655Y105917D01*
X11480Y106551D01*
X12114Y107377D01*
X12512Y108338D01*
X12648Y109370D01*
X12512Y110402D01*
X12114Y111363D01*
X11480Y112189D01*
X10655Y112823D01*
X9693Y113221D01*
X8661Y113357D01*
D02*
G37*
G36*
X9161Y103291D02*
Y99870D01*
X12582D01*
X12512Y100402D01*
X12114Y101363D01*
X11480Y102189D01*
X10655Y102823D01*
X9693Y103221D01*
X9161Y103291D01*
D02*
G37*
G36*
X200000Y137452D02*
X198968Y137316D01*
X198007Y136917D01*
X197181Y136284D01*
X196547Y135458D01*
X196149Y134496D01*
X196013Y133465D01*
X196149Y132433D01*
X196547Y131471D01*
X197181Y130646D01*
X198007Y130012D01*
X198968Y129614D01*
X200000Y129478D01*
X201032Y129614D01*
X201993Y130012D01*
X202819Y130646D01*
X203453Y131471D01*
X203851Y132433D01*
X203987Y133465D01*
X203851Y134496D01*
X203453Y135458D01*
X202819Y136284D01*
X201993Y136917D01*
X201032Y137316D01*
X200000Y137452D01*
D02*
G37*
G36*
Y167452D02*
X198968Y167316D01*
X198007Y166917D01*
X197181Y166284D01*
X196547Y165458D01*
X196149Y164497D01*
X196013Y163465D01*
X196149Y162433D01*
X196547Y161471D01*
X197181Y160645D01*
X198007Y160012D01*
X198968Y159614D01*
X200000Y159478D01*
X201032Y159614D01*
X201993Y160012D01*
X202819Y160645D01*
X203453Y161471D01*
X203851Y162433D01*
X203987Y163465D01*
X203851Y164497D01*
X203453Y165458D01*
X202819Y166284D01*
X201993Y166917D01*
X201032Y167316D01*
X200000Y167452D01*
D02*
G37*
G36*
X200500Y157386D02*
Y153965D01*
X203921D01*
X203851Y154497D01*
X203453Y155458D01*
X202819Y156284D01*
X201993Y156917D01*
X201032Y157316D01*
X200500Y157386D01*
D02*
G37*
G36*
X203953Y187417D02*
X196047D01*
Y179512D01*
X203953D01*
Y187417D01*
D02*
G37*
G36*
X200000Y177452D02*
X198968Y177316D01*
X198007Y176917D01*
X197181Y176284D01*
X196547Y175458D01*
X196149Y174496D01*
X196013Y173465D01*
X196149Y172433D01*
X196547Y171471D01*
X197181Y170645D01*
X198007Y170012D01*
X198968Y169614D01*
X200000Y169478D01*
X201032Y169614D01*
X201993Y170012D01*
X202819Y170645D01*
X203453Y171471D01*
X203851Y172433D01*
X203987Y173465D01*
X203851Y174496D01*
X203453Y175458D01*
X202819Y176284D01*
X201993Y176917D01*
X201032Y177316D01*
X200000Y177452D01*
D02*
G37*
G36*
X199500Y157386D02*
X198968Y157316D01*
X198007Y156917D01*
X197181Y156284D01*
X196547Y155458D01*
X196149Y154497D01*
X196079Y153965D01*
X199500D01*
Y157386D01*
D02*
G37*
G36*
X200000Y147451D02*
X198968Y147316D01*
X198007Y146917D01*
X197181Y146284D01*
X196547Y145458D01*
X196149Y144497D01*
X196013Y143465D01*
X196149Y142433D01*
X196547Y141471D01*
X197181Y140646D01*
X198007Y140012D01*
X198968Y139614D01*
X200000Y139478D01*
X201032Y139614D01*
X201993Y140012D01*
X202819Y140646D01*
X203453Y141471D01*
X203851Y142433D01*
X203987Y143465D01*
X203851Y144497D01*
X203453Y145458D01*
X202819Y146284D01*
X201993Y146917D01*
X201032Y147316D01*
X200000Y147451D01*
D02*
G37*
G36*
X12614Y143323D02*
X4709D01*
Y135417D01*
X12614D01*
Y143323D01*
D02*
G37*
G36*
X203921Y152965D02*
X200500D01*
Y149544D01*
X201032Y149614D01*
X201993Y150012D01*
X202819Y150645D01*
X203453Y151471D01*
X203851Y152433D01*
X203921Y152965D01*
D02*
G37*
G36*
X199500D02*
X196079D01*
X196149Y152433D01*
X196547Y151471D01*
X197181Y150645D01*
X198007Y150012D01*
X198968Y149614D01*
X199500Y149544D01*
Y152965D01*
D02*
G37*
G36*
X8661Y53829D02*
X7630Y53694D01*
X6668Y53295D01*
X5842Y52662D01*
X5209Y51836D01*
X4810Y50875D01*
X4674Y49843D01*
X4810Y48811D01*
X5209Y47849D01*
X5842Y47023D01*
X6668Y46390D01*
X7630Y45992D01*
X8661Y45856D01*
X9693Y45992D01*
X10655Y46390D01*
X11480Y47023D01*
X12114Y47849D01*
X12512Y48811D01*
X12648Y49843D01*
X12512Y50875D01*
X12114Y51836D01*
X11480Y52662D01*
X10655Y53295D01*
X9693Y53694D01*
X8661Y53829D01*
D02*
G37*
G36*
X200000Y51940D02*
X198968Y51804D01*
X198007Y51406D01*
X197181Y50772D01*
X196547Y49946D01*
X196149Y48985D01*
X196013Y47953D01*
X196149Y46921D01*
X196547Y45959D01*
X197181Y45134D01*
X198007Y44500D01*
X198968Y44102D01*
X200000Y43966D01*
X201032Y44102D01*
X201993Y44500D01*
X202819Y45134D01*
X203453Y45959D01*
X203851Y46921D01*
X203987Y47953D01*
X203851Y48985D01*
X203453Y49946D01*
X202819Y50772D01*
X201993Y51406D01*
X201032Y51804D01*
X200000Y51940D01*
D02*
G37*
G36*
X12614Y63795D02*
X4709D01*
Y55890D01*
X12614D01*
Y63795D01*
D02*
G37*
G36*
X200000Y61940D02*
X198968Y61804D01*
X198007Y61405D01*
X197181Y60772D01*
X196547Y59946D01*
X196149Y58985D01*
X196013Y57953D01*
X196149Y56921D01*
X196547Y55959D01*
X197181Y55134D01*
X198007Y54500D01*
X198968Y54102D01*
X200000Y53966D01*
X201032Y54102D01*
X201993Y54500D01*
X202819Y55134D01*
X203453Y55959D01*
X203851Y56921D01*
X203987Y57953D01*
X203851Y58985D01*
X203453Y59946D01*
X202819Y60772D01*
X201993Y61405D01*
X201032Y61804D01*
X200000Y61940D01*
D02*
G37*
G36*
X8661Y43830D02*
X7630Y43694D01*
X6668Y43295D01*
X5842Y42662D01*
X5209Y41836D01*
X4810Y40874D01*
X4674Y39843D01*
X4810Y38811D01*
X5209Y37849D01*
X5842Y37023D01*
X6668Y36390D01*
X7630Y35992D01*
X8661Y35856D01*
X9693Y35992D01*
X10655Y36390D01*
X11480Y37023D01*
X12114Y37849D01*
X12512Y38811D01*
X12648Y39843D01*
X12512Y40874D01*
X12114Y41836D01*
X11480Y42662D01*
X10655Y43295D01*
X9693Y43694D01*
X8661Y43830D01*
D02*
G37*
G36*
X169973Y36216D02*
X169312Y36151D01*
X168196Y35812D01*
X167167Y35262D01*
X166265Y34522D01*
X165525Y33621D01*
X164976Y32592D01*
X164637Y31476D01*
X164572Y30815D01*
X169973D01*
Y36216D01*
D02*
G37*
G36*
X151287D02*
Y30815D01*
X156688D01*
X156623Y31476D01*
X156284Y32592D01*
X155735Y33621D01*
X154995Y34522D01*
X154093Y35262D01*
X153064Y35812D01*
X151948Y36151D01*
X151287Y36216D01*
D02*
G37*
G36*
X200000Y41940D02*
X198968Y41804D01*
X198007Y41405D01*
X197181Y40772D01*
X196547Y39946D01*
X196149Y38985D01*
X196013Y37953D01*
X196149Y36921D01*
X196547Y35959D01*
X197181Y35134D01*
X198007Y34500D01*
X198968Y34102D01*
X200000Y33966D01*
X201032Y34102D01*
X201993Y34500D01*
X202819Y35134D01*
X203453Y35959D01*
X203851Y36921D01*
X203987Y37953D01*
X203851Y38985D01*
X203453Y39946D01*
X202819Y40772D01*
X201993Y41405D01*
X201032Y41804D01*
X200000Y41940D01*
D02*
G37*
G36*
X170973Y36216D02*
Y30815D01*
X176373D01*
X176308Y31476D01*
X175970Y32592D01*
X175420Y33621D01*
X174680Y34522D01*
X173778Y35262D01*
X172749Y35812D01*
X171633Y36151D01*
X170973Y36216D01*
D02*
G37*
G36*
X200000Y71940D02*
X198968Y71804D01*
X198007Y71406D01*
X197181Y70772D01*
X196547Y69946D01*
X196149Y68985D01*
X196013Y67953D01*
X196149Y66921D01*
X196547Y65959D01*
X197181Y65134D01*
X198007Y64500D01*
X198968Y64102D01*
X200000Y63966D01*
X201032Y64102D01*
X201993Y64500D01*
X202819Y65134D01*
X203453Y65959D01*
X203851Y66921D01*
X203987Y67953D01*
X203851Y68985D01*
X203453Y69946D01*
X202819Y70772D01*
X201993Y71406D01*
X201032Y71804D01*
X200000Y71940D01*
D02*
G37*
G36*
X9161Y93291D02*
Y89870D01*
X12582D01*
X12512Y90402D01*
X12114Y91363D01*
X11480Y92189D01*
X10655Y92823D01*
X9693Y93221D01*
X9161Y93291D01*
D02*
G37*
G36*
X8161D02*
X7630Y93221D01*
X6668Y92823D01*
X5842Y92189D01*
X5209Y91363D01*
X4810Y90402D01*
X4740Y89870D01*
X8161D01*
Y93291D01*
D02*
G37*
G36*
X12582Y98870D02*
X9161D01*
Y95449D01*
X9693Y95519D01*
X10655Y95917D01*
X11480Y96551D01*
X12114Y97377D01*
X12512Y98338D01*
X12582Y98870D01*
D02*
G37*
G36*
X8161D02*
X4740D01*
X4810Y98338D01*
X5209Y97377D01*
X5842Y96551D01*
X6668Y95917D01*
X7630Y95519D01*
X8161Y95449D01*
Y98870D01*
D02*
G37*
G36*
X200000Y97452D02*
X198968Y97316D01*
X198007Y96917D01*
X197181Y96284D01*
X196547Y95458D01*
X196149Y94497D01*
X196013Y93465D01*
X196149Y92433D01*
X196547Y91471D01*
X197181Y90645D01*
X198007Y90012D01*
X198968Y89614D01*
X200000Y89478D01*
X201032Y89614D01*
X201993Y90012D01*
X202819Y90645D01*
X203453Y91471D01*
X203851Y92433D01*
X203987Y93465D01*
X203851Y94497D01*
X203453Y95458D01*
X202819Y96284D01*
X201993Y96917D01*
X201032Y97316D01*
X200000Y97452D01*
D02*
G37*
G36*
X8661Y83357D02*
X7630Y83221D01*
X6668Y82823D01*
X5842Y82189D01*
X5209Y81363D01*
X4810Y80402D01*
X4674Y79370D01*
X4810Y78338D01*
X5209Y77377D01*
X5842Y76551D01*
X6668Y75917D01*
X7630Y75519D01*
X8661Y75383D01*
X9693Y75519D01*
X10655Y75917D01*
X11480Y76551D01*
X12114Y77377D01*
X12512Y78338D01*
X12648Y79370D01*
X12512Y80402D01*
X12114Y81363D01*
X11480Y82189D01*
X10655Y82823D01*
X9693Y83221D01*
X8661Y83357D01*
D02*
G37*
G36*
X203953Y81906D02*
X196047D01*
Y74000D01*
X203953D01*
Y81906D01*
D02*
G37*
G36*
X12582Y88870D02*
X9161D01*
Y85449D01*
X9693Y85519D01*
X10655Y85917D01*
X11480Y86551D01*
X12114Y87377D01*
X12512Y88338D01*
X12582Y88870D01*
D02*
G37*
G36*
X8161D02*
X4740D01*
X4810Y88338D01*
X5209Y87377D01*
X5842Y86551D01*
X6668Y85917D01*
X7630Y85519D01*
X8161Y85449D01*
Y88870D01*
D02*
G37*
%LPD*%
D14*
X57087Y49087D02*
X72496Y64496D01*
Y101504D01*
X57087Y20472D02*
Y49087D01*
X160630Y20472D02*
Y79370D01*
X153000Y87000D02*
X160630Y79370D01*
X146000Y87000D02*
X153000D01*
D15*
X8661Y119370D02*
X38370D01*
X49000Y130000D01*
X160000D01*
X170630Y119370D01*
X86000Y121000D02*
X123000D01*
X80000Y115000D02*
X86000Y121000D01*
X80000Y100000D02*
Y115000D01*
D16*
X57087Y20472D02*
D03*
X47244Y10630D02*
D03*
X66929D02*
D03*
Y30315D02*
D03*
X47244D02*
D03*
X160630Y20472D02*
D03*
X150787Y10630D02*
D03*
X170473D02*
D03*
Y30315D02*
D03*
X150787D02*
D03*
D17*
X200000Y183465D02*
D03*
Y77953D02*
D03*
X8661Y139370D02*
D03*
Y59843D02*
D03*
D18*
X200000Y173465D02*
D03*
Y153465D02*
D03*
Y143465D02*
D03*
Y133465D02*
D03*
Y123465D02*
D03*
Y113465D02*
D03*
Y103465D02*
D03*
Y93465D02*
D03*
Y163465D02*
D03*
Y7953D02*
D03*
Y17953D02*
D03*
Y27953D02*
D03*
Y37953D02*
D03*
Y47953D02*
D03*
Y57953D02*
D03*
Y67953D02*
D03*
X8661Y119370D02*
D03*
Y129370D02*
D03*
Y109370D02*
D03*
Y99370D02*
D03*
Y89370D02*
D03*
Y79370D02*
D03*
Y9843D02*
D03*
Y19843D02*
D03*
Y29843D02*
D03*
Y39843D02*
D03*
Y49843D02*
D03*
D19*
X72496Y101504D02*
D03*
X146000Y87000D02*
D03*
X123000Y121000D02*
D03*
X80000Y100000D02*
D03*
X170630Y119370D02*
D03*
M02*
